<?xml version="1.0" encoding="UTF-8"?>
<svg id="YetiMon" xmlns="http://www.w3.org/2000/svg" viewBox="0 0 47.26 100.84">
  <defs>
    <style>
      .cls-1 {
        fill: #fff;
      }
    </style>
  </defs>
  <path d="M25.84,0c.07.06.13.13.21.18.27.19.55.35.81.55.23.19.36.53.75.48.04,0,.12.07.15.12.1.18.16.38.27.54.21.33.42.66.68.95.27.3.61.55.93.84-.07.09-.14.19-.17.23.28.62.53,1.22.84,1.79.13.25.39.42.57.66.31.42.62.84.9,1.28.18.29.02.5-.27.61.06.47.2.95.15,1.41-.06.51.04.91.33,1.32.11.16.16.39.19.59.02.15.01.36-.08.45-.08.08-.29.03-.45.04-.07.56-.14,1.16-.22,1.85.41.37.39,1.01.48,1.61.03.18-.03.45-.15.56-.1.08-.36-.04-.58-.07-.11.61-.15,1.29-.36,1.93-.19.56-.12,1.02.16,1.51.08.13.03.37-.02.53-.15.42-.45.43-.88,0-.17.5-.31.99-.49,1.46-.08.23-.22.45-.32.68-.08.18-.26.41-.2.53.14.29.38.75.6.76.71.04,1.09.64,1.68.82.07.02.17.05.18.09.15.53.7.65,1,1.02.17.21.45.37.3.71,0,0,.01.03.02.04.49.75.8,1.65,1.65,2.12.12.07.21.21.31.32.36.51.73,1,1.39,1.12.06-.06.12-.12.18-.18-.15-.08-.31-.14-.45-.24-.23-.17-.45-.35-.68-.53.63.26,1.07.73,1.49,1.36-.23-.08-.38-.13-.65-.23.41.51.74.93,1.09,1.37-.15.02-.27.03-.35.04.39.78.77,1.55,1.15,2.33-.03,0-.06.01-.09.02.09.04.23.07.25.13.16.54.5.94.89,1.33.42.41.79.86,1.17,1.31.21.25.39.53.58.8.08,0,.17-.02.25-.03-.11.09-.23.17-.38.28.1.11.27.25.35.42.04.08-.1.24-.16.37-.04,0-.09-.02-.13-.03.08.43.18.86.24,1.3.03.23-.03.46-.02.69.03.57.25,1.07.65,1.48.35.35.71.68,1.06,1.03.11.11.19.25.35.48-.81-.18-1.16-.79-1.66-1.19-.03.04-.06.07-.1.11.36.43.71.85,1.08,1.29-.41.36-.66-.09-1.03-.16.13.32.29.59.36.89.16.65.17,1.35.57,1.93.15.22.29.44.43.66.05.07.08.16.12.23-.03.04-.06.08-.1.11-.33-.21-.66-.42-1.04-.66.23,1.08.39,2.15.7,3.18.31,1.02.76,1.99,1.15,2.99-.08.03-.15.05-.25.08.06.16.1.31.16.45.34.68.51,1.38.53,2.14.01.43.22.85.32,1.27.03.12,0,.26,0,.39-.11-.08-.3-.13-.33-.23-.16-.55-.35-1.1-.41-1.66-.06-.63-.18-1.24-.46-1.81.04,1.52.44,2.95,1.02,4.35-.05.03-.11.06-.16.09-.18-.25-.37-.49-.61-.82.02.22,0,.38.05.51.22.55.53,1.07.67,1.64.21.85.46,1.7.36,2.62-.05.4.06.78-.32,1.07-.04.03.01.18.02.27.03.26.19.6.08.77-.37.57.04,1.08.03,1.61-.02.9,0,1.8-.01,2.7,0,.68,0,1.36-.04,2.03-.02.27-.13.54-.2.81-.04,0-.09-.02-.13-.02.06-.6.12-1.19.18-1.79-.05-.01-.1-.02-.16-.03-.08.39-.2.79-.24,1.18-.04.44,0,.89,0,1.36,0,0-.1-.02-.21-.05-.01.05-.04.1-.03.13.28.7.11,1.43.08,2.14-.03.62-.15,1.24-.23,1.86-.03.25-.04.5-.07.75-.07.54-.33.73-.87.63,0,.11-.04.25,0,.32.48.64.31,1.32.2,2.02-.03.15,0,.33.07.47.25.54.14.78-.45.89-.04,0-.07.08-.1.13-.02,0-.03,0-.05,0-.08-.46-.17-.92-.26-1.41q-.16-.04-.45.55c-.23-.03-.35-.12-.26-.38.4-1.19.19-2.31-.27-3.44-.12-.3-.02-.7-.02-1.05.04,0,.09-.02.13-.03.28.7.55,1.4.83,2.1.33-.78-.67-3.23-2.04-4.49.38,0,1.07.65,1.6,1.54.38.64.73,1.29,1.15,1.92-.2-1.91-1.5-3.24-2.52-4.72.03-.02.06-.05.09-.07.29.36.57.72.86,1.07.31.38.62.75.93,1.13.03-.02.07-.03.1-.05-.2-.5-.41-1-.65-1.61.24.13.4.22.6.33-.04-.25-.08-.46-.12-.69.72.19.86.76.97,1.35.03,0,.07-.02.1-.02-.02-.18,0-.37-.08-.53-.46-1.04-.93-2.07-1.41-3.1-.11-.25-.25-.48-.4-.75.58-.07.49.5.73.73.21.2.31.51.52.76-.46-1.78-.6-3.55-.14-5.06,0,.58-.08,1.44.02,2.27.1.82.15,1.68.59,2.41.04,0,.08-.02.12-.02-.06-.63-.12-1.27-.19-1.92.04,0,0,0-.17.04.08-.93.14-1.84.23-2.74.03-.3.03-.64.46-.73.05,0,.1-.25.07-.36-.07-.22-.19-.43-.31-.64-.6-1.06-.84-2.2-.83-3.42.01-1.25.05-2.48.33-3.7.03-.12,0-.29-.06-.4-.32-.65-.26-1.35-.24-2.03,0-.15.02-.29.04-.56.11.21.25.34.24.45-.11.98.09,1.88.59,2.73.1-.04.24-.09.26-.1-.11-1.16-.22-2.28-.33-3.4,0-.06-.03-.14-.07-.18-.76-.69-1.17-1.61-1.65-2.48-.15-.28-.25-.59-.37-.88.04-.03.08-.05.12-.08.35.53.71,1.06,1.13,1.69,0-.19,0-.27-.02-.32-.56-1.04-.77-2.19-1.14-3.29-.18-.53-.45-1.03-.69-1.58.1,0,.27-.02.44-.04.33.58.65,1.15.99,1.72,0,.01.12-.03.32-.08-.48-.59-.9-1.11-1.32-1.63-.28-.41-.57-.82-.85-1.24-.06-.09-.06-.22,0-.32.39.55.78,1.1,1.17,1.65.04-.02.08-.04.11-.07-.26-1.19-.99-2.17-1.54-3.23q.31-.12.8.72c.03-.14.06-.23.1-.41.27.56.51,1.05.75,1.55-.4-1.67-1.06-3.2-2.3-4.42.58.51,1.16,1.02,1.68,1.47-.1-.29-.3-.7-.39-1.13-.17-.85-.82-1.36-1.3-2-.57-.74-1.06-1.54-1.59-2.32-.18-.27-.41-.5-.57-.78-.09-.15-.08-.35-.12-.53-.02-.08-.05-.19-.1-.21-.84-.35-.76-1.14-.82-1.81-.08-.82-.28-1.6-.62-2.34-.05-.11-.16-.19-.32-.27.04.44.08.88.13,1.31-.05,0-.09.02-.14.03-.3-.57-.17-1.31-.63-1.83.03.31.05.62.08.93-.04.02-.07.04-.11.05-.15-.29-.28-.59-.45-.87-.06-.1-.18-.15-.27-.23-.08-.07-.2-.12-.23-.21-.21-.54-.39-1.1-.61-1.64-.04-.11-.22-.27-.3-.25-.51.13-.83-.16-1.14-.47-.25-.26-.49-.54-.71-.83-.36-.48-.79-.87-1.36-1.08.24-.41,0-.66-.33-.9-.04.15-.06.31,0,.43.08.17.22.31.34.46.09.12.18.25.28.38-.05.09-.11.19-.12.21-.29.02-.52.03-.75.04,0,.04,0,.08,0,.12-.12-.07-.23-.13-.37-.21-.06.45.49.85.03,1.27-.15-.11-.3-.21-.46-.32-.02.11-.04.21-.04.22-.21.07-.36.11-.53.16-.05.14-.12.3-.15.47-.01.08.04.2.1.27.18.21.4.39.57.61.07.09.06.23.08.36-.11-.03-.23-.05-.32-.1-.09-.05-.17-.15-.28-.25-.15.28-.34.33-.53.02.11.58-.18,1.26.54,1.63-.13-.01-.26-.02-.39-.03,0,.05-.02.1,0,.13.08.17.18.33.27.5.16-.12.33-.24.47-.38.14-.13.25-.29.38-.44.06.03.11.06.17.08-.12.38-.18.79-.36,1.14-.32.61-.54.62-1.03.15-.2.11-.38.21-.64.34-.03.13-.08.36-.13.63-.12-.05-.22-.09-.32-.13-.05.14-.09.29-.18.55-.12-.19-.24-.31-.24-.42,0-.44.05-.85.44-1.19.21-.18.24-.55.64-.54.03,0,.07-.22.13-.42-.16.03-.27.05-.43.08.05-.34.11-.68.16-1.02-.03,0-.06-.02-.09-.03-.11.16-.22.33-.33.49-.03,0-.05-.02-.08-.03.08-.25.16-.51.27-.83-.24.28-.42.51-.61.73-.04-.02-.07-.03-.11-.05-.03-.17-.07-.34-.09-.46-.28.27-.58.56-.9.87-.03-.04-.1-.13-.15-.2-.2.19.01.67-.49.64-.02,0-.04.15-.07.22-.06.13-.13.26-.26.36.08-.34.17-.68.27-1.08.1.13.16.2.25.33.07-.42.14-.77.21-1.21.09.21.14.33.19.45.02,0,.05,0,.07,0,.03-.32.06-.65.09-.97.03,0,.06,0,.09,0,.02.11.04.22.07.33.02,0,.04,0,.06,0v-.64s.06-.02.1-.03c.11.18.22.36.33.55.04,0,.07,0,.11.01v-1.53c-.15.1-.32.2-.48.3-.27-.16.32-.63-.27-.72.02-.09.06-.21.11-.38-.15.1-.25.17-.4.27-.03-.41-.2-.82.5-.96-.06-.03-.11-.05-.17-.08-.1.02-.19.04-.29.06-.05-.24-.04-.52-.16-.7-.09-.14-.36-.16-.52-.23.09-.2.21-.45.37-.78-.35.08-.48,0-.37-.29-.61.05-.88-.27-.62-.83-.27.11-.48.2-.7.29-.03-.03-.06-.06-.09-.08.08-.12.14-.25.25-.34.22-.19.46-.37.71-.52.32-.18.18-.3.08-.37-.32.22-.6.41-.88.59-.04.02-.16-.02-.18-.05-.12-.39-.47-.21-.81-.37.17-.19.33-.38.55-.63-.03-.05-.09-.22-.21-.32-.23-.2-.62-.22-.65-.66,0-.05-.35-.09-.52-.13-.09.34-.15.59-.61.39-.24-.1-.57.03-.89.06-.07-.17-.14-.36-.18-.46-.24.08-.51.27-.64.2-.43-.23-.52.03-.7.36-.04-.19-.07-.38-.12-.59-.03,0-.14-.05-.15-.03-.25.47-.47.11-.71-.01-.39-.19-.78-.42-1.19-.49-.27-.05-.6.12-.88.25-.08.04-.08.26-.1.3-.33.18-.61.33-.89.48.02.16.04.28.06.4-.14.07-.27.14-.45.24-.1-.12-.24-.3-.38-.48-.14.21-.62-.07-.51.47-.18-.09-.29-.15-.39-.2-.19.36-.34.38-.84.13,0,.09,0,.15.01.24-.11.01-.22.03-.36.04,0,.1.02.19.04.39-.31-.14-.58-.25-.82-.36-.12.19-.26.41-.44.7-.09-.23-.14-.35-.2-.49-.3.44.19.57.31.95-.26-.23-.45-.4-.64-.57-.05.03-.09.06-.14.09l.57,1.14s-.06.05-.09.08c-.18-.22-.36-.44-.62-.75.08.27.13.43.21.69-.17-.08-.28-.13-.39-.19-.04.06-.07.18-.11.18-.33.02-.66,0-.46.5.02.06-.06.2-.12.23-.07.03-.2,0-.26-.05-.09-.08-.15-.2-.3-.27.11.4.21.79.34,1.27-.16-.17-.27-.28-.41-.43-.11.25-.2.45-.29.65.03.03.06.06.09.1h-.63c.12.19.23.36.33.53-.06.1-.17.21-.16.31.03.22.12.43.21.74.15-.35.26-.62.37-.88.1-.09.21-.17.29-.28.43-.53.86-1.06,1.43-1.51.11.24.21.44.28.58.13-.25.26-.51.42-.82.21.31.39.59.63.94.29-.37.59-.74.92-1.15.13.41.25.79.36,1.17-.05.01-.07.02-.07.01-.02-.06-.04-.11-.08-.23-.05.41-.1.75-.13,1.03.29-.22.58-.44.92-.71.07.22.11.35.16.52.73-.18.55-1.01,1.06-1.44v.65c.16-.2.29-.37.45-.58.02.43.04.8.06,1.16.03,0,.05,0,.08-.01.11-.28.21-.55.31-.83.11.27.22.54.36.88.23-.59.43-1.09.63-1.58.3.06.25.48.57.44-.02.31-.03.61-.05.92.15-.12.31-.25.52-.41v.57c.18-.24.31-.43.45-.6.08-.09.19-.2.29-.21.24-.03.49-.02.59.29.05.14.14.26.22.41.07-.09.11-.15.2-.27.02.13.02.21.02.21.23.1.41.18.65.29.11-.06.3-.17.51-.28.1.53.19,1.03.28,1.53.07-.17.16-.38.26-.6.03.18.06.33.09.52.22-.16.41-.29.63-.46.06.26.12.5.18.74.08-.11.18-.23.33-.42.03.23.04.37.05.48.19.07.38.14.56.21.04.08.08.17.12.25.09-.22.17-.43.26-.65.05.04.1.08.15.12-.08.33-.39.69.08.95.07-.08.17-.19.27-.3-.43.53.1,1.05-.02,1.5.19.07.35.12.55.19-.21.19-.35.37-.5-.04-.03.03-.07.07-.1.1.02.49.08.98.05,1.47-.03.46-.16.92-.17,1.39.02-.11.04-.23.05-.34-.02,0-.05.02-.07.02.11.69.22,1.38.32,2.06-.04,0-.07,0-.11.01,0-.06.01-.14-.01-.19-.05-.09-.13-.16-.2-.25-.08.08-.18.15-.22.25-.06.14-.05.3-.11.45-.05.13-.14.24-.25.43.09.26.2.61.34.96.25.64.03.96-.68.9.09.57.17,1.13.26,1.72-.24.01-.39.02-.58.03-.04.44-.08.88-.13,1.33-.06.56-.15.63-.68.56.02.33.04.66.05.99q-.34,0-.63-1.12c-.57.64-.26,1.47-.64,2.15-.08-.45-.16-.89-.25-1.36-.67.54-.58,1.34-.82,2.09-.08-.14-.12-.22-.19-.34v1.62s-.09.02-.13.02c-.06-.18-.12-.37-.18-.55-.16.07-.15.07-.15.81,0,.31-.07.63-.1.94-.04.02-.08.03-.12.05-.12-.18-.31-.36-.34-.55-.06-.39-.04-.8-.04-1.21,0-.48,0-.96,0-1.45-.04,0-.08,0-.12,0-.01.21-.03.43-.04.64l-.11.08c-.13-.14-.26-.28-.37-.4-.02.08-.05.23-.09.39h-.1c-.04-.39-.07-.79-.11-1.2-.13.07-.23.12-.33.17-.04-.01-.09-.02-.13-.03.05.62.13,1.23.15,1.85.01.32-.07.64-.12.96-.06.01-.11.02-.17.04-.15-.23-.29-.47-.47-.75-.05.22-.09.4-.14.63-.32-.63.2-1.46-.56-1.9-.04.22-.07.45-.11.68-.04,0-.07-.02-.11-.03-.17-.41-.32-.82-.52-1.21-.07-.14-.26-.22-.4-.33-.07.15-.13.31-.2.46-.08.16-.23.31-.24.47-.02.31.03.62.06.93.02.15.07.29.07.45-.69-.93-.56-2.13-1.11-3.13-.03.26-.05.52-.09.89-.15-.25-.26-.44-.4-.69v1.05c.19-.08.29-.13.46-.2-.04.17-.04.3-.1.39-.28.49-.24,1.02-.24,1.54,0,.68-.02,1.36-.02,2.04,0,.25.1.51.07.75-.09.64-.23,1.27-.36,1.9-.05,0-.1,0-.14-.01-.09-1.01-.18-2.02-.27-3.03-.04,0-.09,0-.13,0-.06.22-.39.39,0,.69.09.07.13.25.14.38.04,1,.09,2,.07,3,0,.38-.14.8-.34,1.13-.27.45-.38.91-.42,1.43-.03.44-.14.87-.23,1.31-.02.08-.04.19-.1.22-.62.36-.23.83-.15,1.27.07.43.2.85.22,1.27.01.27-.12.55-.22.82-.21.58-.04,1.16.01,1.74.02.25.04.5-.03.76-.08-.54-.16-1.08-.26-1.62-.01-.07-.11-.13-.18-.2.22-.68-.2-1.31-.15-1.99.1.36.21.72.31,1.09.05,0,.1-.02.15-.03-.14-1.16-.28-2.33-.43-3.49l-.15.02c.03.33.07.67.1,1.06-.06-.09-.1-.14-.13-.19-.36.47.02.97-.05,1.46-.06-.16-.12-.31-.18-.47-.14.92.15,1.74.53,2.54.02.29.03.57.05.86,0,.06.03.12.01.16-.4.71.05,1.38.09,2.06.01.28-.02.56-.06.84-.07.49-.17.96-.5,1.39-.14.18-.02.58.01.88.03.37.1.74.13,1.12,0,.1,0,.23-.06.32-.06.08-.17.12-.27.18-.05-.09-.14-.17-.14-.26,0-.53.05-1.06.04-1.59,0-.24-.12-.47-.18-.71-.11-.43-.21-.86-.37-1.29.03.29.11.59.09.88-.01.2-.16.4-.27.67.16-.1.24-.16.34-.22.02.07.06.11.05.14-.36.85-.06,1.64.26,2.41.46,1.13.4,2.26.14,3.41,0,.04-.05.06-.09.11-.09-.04-.19-.08-.28-.13.1-.26.19-.53.29-.79-.03,0-.06-.02-.08-.03-.04.08-.08.17-.12.25-.07-.33-.06-.65-.08-.97-.02-.29.16-.68-.26-.82-.06.01-.12.03-.18.04.15.77.29,1.54.44,2.31.13.8.28,1.6.39,2.41.08.58.19,1.18.14,1.76-.05.63,0,1.24.01,1.86.01.48-.13.96-.14,1.45-.02.9-.05,1.81.39,2.66.09.18.14.43-.26.4.12.26.22.48.32.71-.03,0-.07,0-.1,0-.03.15-.11.32-.08.46.09.51.23,1.01.34,1.51.02.1.03.21-.02.34-.51-.35-.2-.99-.44-1.36-.06.65-.12,1.35-.2,2.06-.01.11-.09.22-.14.33-.04,0-.09,0-.13-.01,0-.13-.03-.27,0-.38.32-1,.28-2.02.02-3.02-.12-.46-.36-.89-.58-1.4-.05.15-.13.27-.13.4,0,.31.05.61.08.91.06.69.09,1.39.18,2.08.07.57.2,1.12.32,1.68.04.19.14.36.22.53.13.3.27.59.41.88-.03.02-.07.04-.1.06-.18-.26-.35-.52-.54-.8.06.83.12,1.61.18,2.4-.05,0-.1.02-.15.03-.1-.57-.2-1.14-.3-1.7-.09.48-.18.97-.28,1.46-.05.28.04.48.24.7.56.59.71,1.31.56,2.12-.04.19.16.44.29.64.01.02.25-.08.38-.14.23-.12.42-.08.53.15.23.5.48,1,.66,1.51.18.5.17.53.59.23.17-.12.34-.24.56-.39.06.12.2.29.17.33-.22.27-.46.54-.74.74-.09.07-.37-.02-.49-.12-.19-.15-.35-.36-.46-.58-.15-.31-.25-.65-.37-.98-.47.23-.64.18-.91-.25-.2-.32-.47-.62-.63-.95-.09-.17-.09-.44-.03-.63.18-.58.06-1.08-.31-1.56.05.4.1.8.15,1.21-.05.02-.09.04-.14.07-.1-.17-.27-.33-.29-.51-.09-.72-.14-1.44-.2-2.16,0-.1.04-.24,0-.29-.52-.48-.29-1.09-.3-1.65,0-.05,0-.11-.09-.17v1.25c-.4-.31-.48-.63-.4-1,.15-.65.34-1.3.45-1.96.06-.34,0-.7-.03-1.06-.03-.27-.1-.53-.25-.78.02.34.04.69.05,1.03-.05.01-.1.03-.15.04-.06-.2-.18-.4-.18-.6-.02-1.29-.03-2.58,0-3.87.01-.47.17-.93.26-1.39.03-.16.06-.32.03-.5-.05.1-.1.2-.2.42-.12-.22-.27-.37-.26-.5.04-.79.1-1.59.2-2.38.06-.41.23-.81.34-1.22.11-.41.27-.84-.16-1.19-.05-.04-.05-.16-.05-.24-.06-1.72-.12-3.43.52-5.1-.13.03-.21.04-.34.07,0-.23-.03-.44,0-.64.15-.82.33-1.63.5-2.45.03-.14.04-.28.1-.4.11-.23.1-.4-.13-.56-.11-.08-.18-.28-.2-.44-.18-1.45-.11-2.88.43-4.26.09-.23.13-.48.14-.73.04-.77-.02-1.56.12-2.31.11-.65.42-1.27.67-1.89.2-.48.44-.94.66-1.4.03-.06.03-.13.05-.22-.17.11-.32.21-.52.34.1-1.56.85-2.81,1.43-4.19-.16.09-.27.14-.35.21-.09.08-.15.19-.28.26.09-.29.13-.6.27-.86.21-.38.47-.73.74-1.06.38-.47.76-1.79.64-2.41-.17.38-.34.73-.5,1.08-.04,0-.08,0-.12,0-.1-1.2-.2-2.4-.3-3.6-.31.46-.29.92-.12,1.38.02.07.07.13.07.2,0,.19.05.43-.05.56-.11.15-.65-.1-.7-.33-.13-.64-.26-1.29-.33-1.94-.05-.45.04-.93-.03-1.38-.07-.48-.26-.95-.39-1.42-.04,0-.08.01-.13.02-.07.58-.13,1.15-.2,1.77-.29-.25-.24-.55-.24-.85,0-.45.02-.9-.07-1.33-.05-.26-.28-.47-.41-.72-.39-.79-.51-1.61-.33-2.48.04-.18,0-.41-.1-.57-.3-.5-.4-1.01-.29-1.57.07-.36.17-.71.22-1.07.07-.51.11-1.03.07-1.55-.21.51-.42,1.02-.63,1.54-.07-.02-.13-.04-.2-.06.07-.29.15-.58.21-.88.11-.57.33-1.17.25-1.72-.07-.49-.5-.93-.77-1.39-.04-.06-.19-.08-.2-.14-.08-.54-.57-.63-.94-.8-.52-.25-.61-.72-.76-1.17-.15-.48-.17-.97-.48-1.43-.33-.49-.51-1.08-.73-1.58-.17.01-.46.09-.5.02-.1-.17-.17-.43-.11-.61.12-.34.18-.63.05-1-.15-.45-.18-.93-.27-1.4-.54.07-.6.02-.51-.52.05-.33.17-.64.26-.97.02-.08.06-.16.05-.23-.05-.39-.12-.77-.18-1.17-.42-.05-.47-.13-.33-.56.03-.11.07-.22.13-.31.17-.26.25-.51.18-.83-.05-.21.05-.44.05-.67,0-.19-.08-.38-.09-.57-.01-.17-.03-.36.02-.52.04-.14.14-.29.26-.38.66-.48.84-1.27,1.26-1.91.04-.07.1-.18.08-.22-.18-.29.11-.36.23-.5.19-.22.43-.41.57-.65.37-.62.91-1.06,1.45-1.5.12-.1.3-.13.57-.25-.13.47-.24.83-.37,1.27-.02.12-.05.3-.1.48-.02.07-.1.12-.15.18-.06.06-.18.14-.17.17.19.44-.28.54-.39.82-.04.11.01.25.02.38,0,.12.07.32.02.35-.63.42-.43,1.07-.5,1.68.07.02.14.03.2.05.42.09.5.36.22.69-.28.33-.34,1.13-.09,1.48.05.07.16.1.25.12.5.08.59.28.3.69-.07.1-.16.2-.24.29.12.3.23.58.34.87.1.28.19.54.58.56.24,0,.27.22.16.41-.07.12-.16.23-.27.38.22.37.44.75.69,1.12.05.07.19.12.28.12.26,0,.58-.06.63.26.03.21-.15.44-.23.67-.05,0-.11,0-.16,0,.29.31.58.63.82.89.34-.11.62-.19.95-.29,0-.02.03-.12.06-.22.03-.01.07-.03.1-.04.21.4.43.81.62,1.16.19-.22.4-.44.57-.68.09-.12.11-.3.26-.46.06.22.13.44.19.66.05,0,.09,0,.14.01.03-.35.06-.7.09-1.1.27.32.52.62.83.99.01-.75-.21-1.39.24-2.06.16.27.29.5.43.73.13.22.19.57.59.4-.05-.24.04-.48.39-1.13.33.28.3.62.18.99.05,0,.1.01.15.02.1-.39.19-.77.32-1.3.21.37.37.64.6,1.03-.07-.44-.13-.76-.18-1.09.06-.05.11-.09.17-.14.09.18.18.36.27.54.03-.02.06-.04.09-.06v-.68s.09-.04.14-.06c.12.21.23.42.37.62.14.21.3.4.45.6l.12-.04c-.02-.22-.04-.43-.05-.66.05.02.13.05.22.09-.03-.28-.07-.56-.12-.94.52.73.99,1.37,1.46,2.02.04-.02.07-.04.11-.07-.07-.24-.14-.48-.21-.72.05-.04.1-.07.14-.11.15.19.3.38.46.56.13.14.36.22.42.37.08.23,0,.53.42.52.29-.54.09-1.1.02-1.69.39,0,.52.29.68.53.16.24.32.48.49.74.46-.14.4-.56.48-.9.16.17.28.41.47.48.16.06.39-.09.6-.15.36.27.78.57,1.25.92.04-.3.07-.51.1-.71.04,0,.08-.01.12-.02.07.29.14.58.2.82.38.11.77.21,1.27.35.32-.34.74-.79,1.19-1.28-.15-.05-.3-.05-.34-.12-.14-.21-.34-.45-.33-.67.01-.31.32-.5.62-.43.49.11.71-.1.9-.51.2-.42.48-.81.73-1.22-.11-.12-.24-.24-.34-.37-.3-.42-.19-.73.32-.74.31,0,.4-.16.49-.39.19-.51.39-1.01.59-1.5-.15-.21-.35-.42-.47-.66-.22-.43-.05-.71.42-.68.36.03.52-.08.54-.44.03-.43.11-.86.14-1.29,0-.1-.09-.21-.17-.3-.1-.13-.25-.23-.33-.37-.23-.39-.07-.69.38-.73.11-.01.22,0,.28,0,0-.44,0-.84,0-1.25,0-.37-.14-.64-.45-.88-.46-.35-.44-.61.09-.93-.31-.36-.6-.71-.89-1.05.5-.59-.3-.55-.43-.86.59-.5-.22-.47-.3-.78.06-.07.14-.16.24-.27-.12-.22-.23-.48-.38-.71-.15-.23-.16-.43,0-.65.03,0,.06,0,.08,0ZM20.1,33.02c-.06,0-.12,0-.19.01.29-1.2-.42-2.51.62-3.62-.18-.08-.33-.11-.43-.2-.12-.11-.23-.26-.29-.42-.06-.13-.06-.29-.08-.44h-.11c-.1.16-.19.31-.29.47-.03-.01-.07-.02-.1-.03v-.8c-.3.09-.58.18-.91.28-.02-.38-.05-.73-.06-1.01-.13-.08-.23-.14-.34-.21-.11.17-.23.36-.35.55-.04-.01-.08-.02-.12-.03.14-.49.28-.99.41-1.48-.03-.03-.06-.05-.09-.08-.32.32-.65.64-.96.96-.77-.18-.44-.72-.34-1.2-.04-.02-.08-.05-.13-.07-.35.36-.71.72-1.06,1.08-.02-.05-.05-.14-.1-.22-.12-.22-.2-.49-.37-.66-.34-.35-.36-.33-.27-.74.02-.12.02-.24.04-.35-.03-.01-.07-.03-.1-.04-.32.66-.64,1.31-.96,1.97-.03,0-.07-.02-.1-.03.02-.24.04-.48.06-.79-.14.24-.24.42-.35.6-.09-.06-.15-.1-.21-.14-.03.14-.07.29-.1.43,0-.69-.54,0-.65-.37-.18.68-.33,1.26-.5,1.93q-.39-.65-.23-1.95c-.15.25-.26.44-.37.63-.03,0-.07-.01-.1-.02.07-.45.15-.9.22-1.35-.03,0-.06-.01-.09-.02-.07.07-.13.15-.2.22-.03-.01-.07-.02-.1-.03.04-.19.08-.39.12-.58-.02-.01-.05-.02-.07-.03-.16.32-.31.63-.47.95-.03,0-.06,0-.09,0-.07-.52-.14-1.04-.23-1.67-.09.28-.14.45-.21.66-.05-.07-.08-.12-.11-.17-.26.39-.51.78-.81,1.24.03-.3.05-.52.06-.63-.19-.03-.33-.06-.47-.08-.03.27-.06.56-.1.85-.05,0-.09,0-.14-.01-.05-.49-.1-.98-.15-1.48h-.15c-.38.49-.75.98-.6,1.68.05.23,0,.48,0,.72-.05,0-.11.01-.16.02-.08-.19-.16-.37-.24-.55-.04.19-.07.39-.11.59-.03,0-.07,0-.1-.01.06-.54.12-1.09.17-1.63-.22.2-.33.45-.49.65-.41.53-.39,1.05-.17,1.67.2.55.36,1.15.18,1.77-.05.17-.04.44.06.57.48.6.29,1.25.14,1.87-.1.43.05.69.34.95.12.11.22.27.27.43.15.4.24.82.4,1.21.08.19.35.32.4.5.14.6.39,1.18.33,1.83-.02.22.14.45.22.68.04-.01.09-.03.13-.04,0-.11.02-.23.03-.34.03,0,.06,0,.08,0,.02.37.04.73.06,1.1h.11c.02-.17.05-.35.08-.59.53.9.2,1.83.41,2.75.29-.59.57-1.18.87-1.8.15.34.29.66.46,1.05.11-.23.19-.38.26-.51.11.09.26.16.31.27.07.16.05.36.11.53.03.07.16.17.23.16.21-.04.41-.13.61-.18.12-.03.3-.06.36,0,.3.32.56.66.81.96,0-.1.03-.3.04-.49.04,0,.08.02.11.03,0,.17.02.34.02.5.03,0,.05,0,.08,0v-.53s.03,0,.04,0c.04.2.08.39.1.54.26-.44.52-.88.74-1.25h.99s0-.02.05-.13c.06.32.1.59.15.85.02,0,.04,0,.06,0v-.64c.09.14.17.27.24.39l-.06-.12c.13-.07.29-.24.37-.2.17.07.31.25.43.36.16-.28.31-.65.54-.94.13-.16.39-.19.52-.45.19-.4.48-.76.74-1.17.07.11.1.16.11.19.6-.78.54-1.75.7-2.66-.02.25-.04.51-.06.76.04,0,.08,0,.12.01.02-.19.02-.37.05-.56.08-.49.16-.98.26-1.47.02-.11.11-.28.19-.3.36-.09.3-.35.3-.6,0-.23,0-.46,0-.7,0-.24-.02-.48-.04-.72-.03,0-.06,0-.09,0-.06.37-.13.74-.19,1.12ZM27.62,24.21c.01-2.4-.66-4.49-2.32-6.22-.53.66-1,1.25-1.43,1.78.38.72.75,1.43,1.11,2.13-.05.03-.11.07-.16.1-.6-1.04-1.24-2.04-2.33-2.65.82,1.26,1.7,2.48,2.11,3.93.17-.04.26-.06.45-.1-.31.39-.22.65.07.91.14.13.21.34.31.51.06,0,.11.01.17.02.02-.56-.26-1.1-.35-1.65.07-.05.14-.11.21-.16.06.14.15.27.18.42.1.43.19.87.27,1.31.07.36.03.77.56.9,0-.8.56-1.03,1.14-1.22ZM24.39,17.07c.44.21.92.35,1.29.63.64.47,1.03,1.16,1.35,1.88.49,1.12.73,2.3.84,3.52.02.23.09.45.14.69.43-.69.5-1.38.26-2.09-.39-1.19-.79-2.38-1.22-3.66.89,1.17,1.2,2.49,1.59,3.75.12-.3.22-.6.35-.9.2-.49.43-.97.62-1.46.04-.1.06-.26,0-.34-.81-1.42-1.73-2.74-2.92-3.78-.17.36-.34.73-.52,1.09-.16.31-.19.55.17.75.09.05.11.24.16.36-.45-.13-.77-.34-1.12-.44-.33-.1-.73-.39-1,.01ZM30.27,19.5s.1,0,.14,0c-.03-.28-.04-.56-.1-.83-.08-.34-.22-.66-.33-.99-.04-.12-.05-.24-.08-.36.16-.02.32-.03.44-.04.09-.7.19-1.42.31-2.29-.76-.99-1.71-2.01-2.83-2.78-.18.51-.33.99-.52,1.44-.1.23-.09.34.12.51.49.4.95.83,1.38,1.3.32.34.56.75.84,1.13-.05.04-.09.09-.14.13-.12-.09-.25-.16-.35-.27-.52-.61-1-1.27-1.56-1.85-.36-.37-.8-.71-1.47-.6.24.41.24.88.67,1.14.24.14.45.33.66.51,1.22,1.08,1.97,2.49,2.81,3.84ZM31,13.4c.05,0,.1-.01.15-.02v-1.93c-.74-.85-1.57-1.84-2.72-2.47-.13.59-.26,1.15-.41,1.82.17.18.42.45.73.77-.54-.26-1.01-.49-1.48-.72-.04.05-.08.11-.12.16.36.36.71.75,1.09,1.09.77.69,1.57,1.34,2.33,2.05.36.34.64.76.95,1.14-.04-.3-.13-.59-.29-.82-.41-.57-.86-1.11-1.28-1.67-.05-.07-.05-.17-.08-.26.1.02.22,0,.28.05.29.26.57.53.85.8ZM3.14,22.65c.06-.43.1-.82.17-1.19.3-1.53.63-3.06,2.47-3.71-.67-.22-1.09.21-1.63.33.72-.62.02-1.03-.12-1.58-.92.82-1.56,1.77-2.12,2.78-.03.05-.02.14,0,.2.23.54.46,1.08.7,1.65.33-.85.64-1.64.94-2.42l.13.05c-.25.76-.49,1.52-.74,2.28-.18.54-.23,1.07.18,1.62ZM5.44,21.4c-.21-.65.48-1.07.7-1.65-.35-.42-.69-.83-1.07-1.29-.18.2-.38.38-.53.6-.76,1.13-1.17,2.37-1.14,3.73,0,.1.13.2.21.28.17.17.35.33.54.48.06.05.15.05.23.07v-.99q.33-.12.24-.76h.51c.1-.16.17-.27.29-.47ZM27.98,7.73l-.12.17c.21.49.67.74,1.1.99.82.47,1.55,1.04,2.11,1.8.27.36.52.73.77,1.1.03-.02.06-.04.09-.06-.36-.63-.63-1.32-1.22-1.81-.15-.13-.23-.34-.35-.51.04-.03.08-.06.13-.08.22.19.44.39.72.63-.02-.37-.03-.64-.04-.92-.04-.7-.15-1.36-.82-1.78-.63-.4-1.25-.82-1.91-1.26.03.57.06,1.08.09,1.6.32.24.66.5,1.01.75-.03.05-.05.1-.08.15-.17-.07-.35-.13-.51-.22-.33-.17-.65-.36-.97-.55ZM4.46,15.65c-.05-.05-.11-.1-.16-.15-1.13.19-1.53,1.32-2.31,1.97.38-.8.97-1.43,1.66-1.94-.15-.43-.28-.83-.44-1.29-.16.11-.3.2-.42.31-.46.45-.91.92-1.36,1.38-.24.24-.38.49-.2.85.1.19.12.44.1.66-.02.31.04.53.4.58-.14.51-.28.99-.44,1.56.17-.07.21-.07.22-.09.06-.09.12-.19.17-.29.63-1.02,1.23-2.05,2.21-2.79.24-.18.38-.5.57-.76ZM6.69,68.51c-.06.51-.14.91-.15,1.32-.01.58-.18,1.13-.08,1.75.11.67-.06,1.41-.2,2.11-.14.69.17,1.39-.13,2.07-.04.09,0,.26.05.36.26.45.54.89.81,1.34.05-1.02.1-2.01.15-3.1-.23.33-.43.6-.63.89-.4-.38.38-.79.09-1.2.46-.27.83-1.16.7-1.68-.06.05-.11.1-.09.08v-1.42c-.06-.04-.12-.08-.18-.12,0,.11-.01.22-.02.33-.06-.02-.11-.04-.17-.06.34-.88.37-1.74-.15-2.66ZM.46,16.34s.09.08.14.12c.65-1.02,1.56-1.77,2.53-2.45.21-.15.33-.42.5-.63-.03-.03-.05-.06-.08-.08-.28.13-.57.26-.85.39.76-.58-.05-1.16.02-1.77-.56.42-1.08.85-1.53,1.33-.2.21-.56.37-.41.83.1.31.06.67.08,1.05.31-.26.55-.46.79-.66.03.03.06.07.09.1-.42.59-.85,1.18-1.27,1.77ZM43.57,64.49s.05-.01.07-.02c-.03-.13-.04-.26-.08-.39-.25-.75-.54-1.5-.73-2.26-.13-.51-.11-1.06-.16-1.63.12.04.18.06.25.08v-.47c-.05.05-.08.08-.09.08-.12-1.13-.06-2.27-.28-3.4-.16.47-.22.94-.3,1.42-.25,1.49-.29,2.98.28,4.41.3.74.7,1.45,1.05,2.17ZM.23,13.72s.08.07.13.11c.53-1.04,1.41-1.69,2.37-2.27.16-.1.28-.28.41-.42-.03-.04-.07-.09-.1-.13-.34.17-.68.34-1.02.51-.02-.03-.03-.07-.05-.1.23-.21.56-.38.66-.64.12-.28.03-.65.03-.98-1.57.67-1.96,1.22-1.92,2.72.18-.12.33-.22.49-.33.02.02.04.04.05.06-.35.49-.7.98-1.05,1.47ZM29.6,5.42c-.34-.63-.66-1.22-1.03-1.9.27.1.5.18.73.26-.61-.57-1.33-.43-2.04-.35.19.08.38.08.57.1.14.01.28.04.42.07-.11.1-.21.19-.31.28.09.23.14.54.3.76.16.21.44.33.66.49-.03.04-.05.09-.08.13-.37-.16-.73-.32-1.1-.48-.04.07-.07.13-.11.2.7.45,1.42.86,2.08,1.35.65.49,1.25,1.05,1.87,1.59-.51-1.03-1.45-1.7-2.39-2.49h.42ZM.37,11c.06.06.11.12.17.17.58-1.13,1.85-1.43,2.71-2.24-.03-.04-.05-.08-.08-.12-.23.11-.45.21-.68.32-.03-.02-.06-.05-.09-.07.39-.3.82-.58.47-1.18h.62s0-.09,0-.14c-.38.03-.75.05-1.13.08,0,.03,0,.05,0,.08.08.03.15.07.21.09-.23.47-.58.86-.58,1.41-.51.51-1.05,1.06-1.59,1.6ZM6.59,63.6c-.33.91-.63,1.75-.95,2.64.49-.37.94-.54,1.55-.41-.2-.75-.4-1.47-.6-2.23ZM37.02,35.21c.77.95,1.55,1.9,2.33,2.85.02-.02.05-.04.07-.06-.64-1.07-1.27-2.14-1.9-3.2-.15.12-.28.22-.51.4ZM7.01,57.14s-.09-.01-.13-.02c-.17.98-.34,1.96-.51,2.94.06.01.12.03.18.04.11-.35.22-.7.34-1.05.03-.09.11-.23.14-.23.44.09.28-.23.25-.39-.07-.44-.18-.87-.28-1.3ZM43.86,61.91s.09-.01.13-.02c.01-1.26-.11-2.5-.62-3.68-.05,0-.11.02-.16.03.22,1.22.43,2.45.65,3.67ZM43.19,67.78c.59-1.16.4-2.32,0-3.49v3.49ZM6.77,83.81c-.16-.78-.31-1.52-.46-2.26h-.13c-.07.64-.14,1.28-.21,1.91l.12-.06c.19.12.39.23.68.41ZM6.21,57.38c.3-.31.3-.31.35-.82,0-.09.08-.17.12-.26.29-.68.66-1.34.62-2.18-.37.59-1.17,3.04-1.09,3.26ZM8.28,53.09c.34-.89.31-1.81.26-2.8-.49.51-.37,1.26-.26,2.8ZM9.08,47.07c-.73.58-1.1,1.22-1.14,2.04.47-.59,1.1-1.08,1.14-2.04ZM6.49,66.37c-.64.18-1.08,1.58-.73,2.29.23-.71.48-1.51.73-2.29ZM9.54,47.87c-.61.74-.55,1.57-.38,2.42.13-.81.25-1.61.38-2.42ZM7.3,52.46c.29-.88.57-1.73.86-2.59-.02,0-.04-.02-.06-.03-.37.84-.73,1.68-1.11,2.55.17.04.28.06.31.07ZM7.88,58.75c.17-.76-.19-2.33-.56-2.73.19.91.37,1.82.56,2.73ZM19.7,26.24s-.07-.04-.11-.06c-.11.17-.22.33-.32.49-.14-.1-.23-.17-.34-.25-.05.12-.1.19-.1.27-.01.13,0,.26,0,.38.15-.05.36-.04.45-.15.17-.2.28-.46.41-.69ZM6.37,78.24c-.06-.01-.11-.02-.17-.03-.08.73-.15,1.47-.23,2.2.04,0,.09,0,.13.01.09-.73.18-1.46.27-2.18ZM36.87,32.29c-.01-.15.02-.32-.05-.43-.16-.28-.37-.54-.57-.82-.14.55.19.9.62,1.26ZM43.13,62.29s.1-.02.15-.03c-.1-.62-.2-1.25-.3-1.87-.07.01-.13.02-.2.04.11.62.23,1.24.34,1.86ZM5.3,74.02c.07.01.14.02.21.04.08-.56.16-1.13.24-1.69-.05,0-.11-.02-.16-.03l-.29,1.68ZM31.02,25.76c.28.29.57.6.88.92.09-.38-.31-.78-.88-.92ZM10.91,19.62s.07,0,.11,0c.03-.21.01-.45.1-.64.15-.33.05-.55-.21-.73v1.37ZM17.99,26.91c.34-.06.69-.97.62-1.6-.2.52-.41,1.05-.62,1.6ZM27.51,2.02q-.32-.6-1.12-.42c.28.06.44.1.61.14-.02.09-.04.18-.06.28h.57ZM5.9,31.31v-2.11c.01.69-.42,1.38,0,2.11ZM21.01,31.37v-1.29c-.34.3-.35.92,0,1.29ZM28.22,3.21q-.37-.62-.89-.33c.27.1.54.2.89.33ZM9.22,46.26s-.05-.03-.07-.04c-.14.22-.28.44-.42.66.16.09.32.18.49.28v-.89ZM40.31,38.25s-.09.03-.14.04c.13.5.27.99.4,1.49.05-.02.11-.03.16-.05-.14-.49-.29-.99-.43-1.48ZM36.31,32.89c-.12.67.03,1.1.42,1.08-.14-.35-.26-.68-.42-1.08ZM36.99,31.16c-.34-.39-.62-.73-.95-1.11,0,.42.49,1.01.95,1.11ZM43.39,69.67c.38-.69.32-1.06-.11-1.05.03.32.07.64.11,1.05ZM20.23,34.22l-.12-.02c-.07.28-.13.57-.23.95.58-.27.35-.63.35-.93ZM2.96,7.64c.21-.09.36-.15.55-.23-.12-.11-.19-.18-.29-.27.18-.03.31-.05.44-.08,0-.02,0-.04,0-.06h-.58c-.04.2-.07.37-.12.63ZM6.17,85.04c.08-.36.15-.68.23-1.06-.44.27-.5.58-.23,1.06ZM15.31,26.17c.25-.3.49-.58.74-.88-.4-.01-.75.42-.74.88ZM6.77,53.96s.09.04.13.05c.16-.37.32-.75.47-1.12-.05-.02-.11-.04-.16-.06-.15.38-.3.75-.44,1.13ZM7.03,59.92c-.05-.02-.1-.04-.15-.06-.16.41-.31.82-.47,1.24.03.01.07.02.1.04.17-.41.35-.81.52-1.22ZM28.08,2.54c-.26-.29-.61-.33-1.1-.13.34.04.68.08,1.1.13ZM6.24,72.98s-.08-.01-.12-.02c-.05.39-.1.79-.15,1.18.04,0,.08,0,.13.01.05-.39.1-.79.15-1.18Z"/>
  <path d="M41.95,80.78s.03,0,.05,0c.6.03,1.2.07,1.8.1.55.03,1.11-.02,1.64.08.71.14,1.09.71,1.3,1.34.23.69.35,1.41.52,2.12v.08c-.03.13-.07.27-.08.4-.01,1.27-.31,2.48-.69,3.68-.12.39-.35.57-.78.63-.66.09-1.29.36-1.95.44-1.14.14-2.3.19-3.45.27-.41.03-.82,0-1.22.04-.11,0-.25.12-.3.22-.22.42-.38.87-.61,1.28-.16.29-.43.52-.61.81-.12.19-.15.44-.22.67-.16-.02-.32-.04-.48-.06-.03.18-.06.31-.1.56-.09-.21-.13-.32-.19-.47-.13.36-.25.68-.39,1.07-.1-.19-.17-.32-.23-.44-.09.12-.18.25-.29.4-.05-.05-.1-.1-.16-.17-.09.22-.18.43-.29.69-.08-.14-.14-.24-.23-.41-.1.14-.19.24-.27.35q-.2-.13-.41.3c-.06-.23-.1-.4-.14-.56-.02,0-.04-.01-.07-.02-.06.3-.12.6-.18.9-.03,0-.06,0-.1,0-.03-.12-.07-.25-.11-.39-.11.08-.23.18-.38.29-.01-.12-.02-.23-.04-.37-.19.49-.37.95-.59,1.51-.14-.22-.19-.32-.27-.44-.12.2-.23.38-.34.57.18-1.02.35-2.05,1.27-2.73.28.02.65.05,1.1.09.03-.18.08-.43.15-.78.13.24.22.4.3.56.26-.29.54-.58.78-.89.3-.39.56-.8.85-1.2.22-.29.97-.39,1.23-.13.17-.39.33-.76.52-1.19h-2.02c-.09.31-.19.63-.3.99-.15-.1-.32-.21-.52-.34-.09.27-.19.54-.33.92v-2.1c.06-.02.11-.03.17-.05.21.36.42.71.66,1.1.22-.63-.26-1.29.12-1.98.12.23.19.36.28.52.05-.61.1-1.2.15-1.78.05,0,.09-.01.14-.02.09.09.19.18.31.3.03-.18.09-.36.09-.54,0-.29.1-.52.4-.56.28-.04.57.02.66.37.02.08.05.15.11.3.04-.24.03-.44.1-.59.07-.14.24-.24.3-.29.13-.82.28-1.6.36-2.38.04-.43.04-.88-.06-1.29-.21-.87.11-1.7.12-2.55,0-.47-.1-.89-.35-1.33-.33-.57-.52-1.23-.75-1.85-.04-.12-.02-.3.05-.41.26-.43.14-.85-.02-1.33.42.23.64.46.72.92.08.41.06.8.06,1.2,0,.43.14.86.26,1.29.39-.82.13-2.61-.4-3.65.13.19.28.37.38.57.11.22.18.46.26.68.05,0,.1-.02.15-.02-.09-.78-.11-1.57-.27-2.33-.16-.73-.3-1.43-.23-2.18.05-.46.07-.93.01-1.38-.09-.75-.26-1.49-.39-2.23-.05,0-.09,0-.14,0-.13.18-.27.37-.4.55.15-.46.19-.99.71-1.07.14-.76.3-1.48.38-2.2.04-.36-.05-.74-.13-1.1-.03-.12-.21-.2-.34-.31-.39.52-.06,1.02-.06,1.51-.05.01-.09.02-.14.04-.08-.19-.19-.36-.25-.56-.14-.51-.26-1.02-.38-1.54.03,0,.07-.02.1-.03.08.14.16.29.24.42.15-.15.31-.3.44-.47.05-.06.04-.2.01-.28-.28-.64-.52-1.29-.86-1.9-.41-.71-.7-1.42-.58-2.27.06-.38.26-.48.57-.43.26.04.52.15.88.26-.14-.35-.26-.68-.41-.99-.24-.5-.55-.97-.75-1.49-.12-.3-.04-.67-.11-1-.07-.32-.24-.56-.67-.54-.94.04-1.4-.57-1.21-1.56.41.07.47.4.57.71.08.26.14.58.5.44-.1-.71-.2-1.4-.28-2.09-.03-.3-.12-.49-.42-.65-.37-.19-.68-.51-1.01-.77-.01,0-.02-.02-.03-.03-.17-.18-.71-1.26-.7-1.52,0-.31-.15-.35-.39-.31-.14.02-.27.06-.41.07-.1,0-.2-.02-.34-.04.06-.15.1-.27.15-.38q-.6-.64-.32-1.15c-.17.02-.32.04-.44.06.01-.19.06-.47.02-.48-.2-.07-.42-.07-.64-.09-.12,0-.24,0-.37,0,0-.06-.01-.13-.02-.19.26-.1.53-.19.92-.34-.29-.05-.48-.12-.67-.12-.19,0-.4.06-.56.16-.34.22-.5.06-.64-.26-.31.17-.59.36-.9.46-.11.03-.3-.18-.47-.28-.17.09-.4.2-.62.32,0,.01.02.02.02.04-.18.11-.35.3-.53.31-.46.02-.46-.4-.56-.72q-.35.05-.19.47c-.69.2-1.38.41-2.08.61.36.44.07.93-.58,1.16-.45.16-.87.41-1.29.64-.07.04-.11.15-.19.28.13,0,.21,0,.28,0,.16.02.33.06.49.09-.04.2-.02.47-.14.6-.28.31-.63.55-.96.82-.68.55-1.16,1.2-1.18,2.11,0,.07-.04.13-.06.2-.01.05,0,.11-.02.18.22-.1.41-.2.62-.26.3-.09.5,0,.37.35-.13.36-.32.7-.48,1.06-.05.1-.08.21-.12.31.7.05.89.36.59.96-.24.48-.54.94-.5,1.5.21-.07.44-.23.6-.17.16.06.3.32.35.51.16.61.31,1.23.39,1.85.03.23-.16.48-.26.72-.34.9-.57,1.82-.36,2.8.02.09.03.19.03.28,0,.08-.02.16-.04.29.06-.04.09-.05.11-.07.3-.23.66-.36.97-.16.31.2.44.57.29.97-.15.38-.33.75-.44,1.15-.11.39-.19.79-.24,1.19-.04.4.01.76.32,1.12.46.53.44,1.21.29,1.87.45-.07.85.4.77.94-.13.86-.29,1.71-.44,2.57-.06.35-.13.7-.2,1.08.09.01.15.03.21.03.69.03.87.24,1.1.9.24.69.07,1.35.02,2.03-.02.29-.02.6.03.89.07.44.26.86.27,1.3.02.7-.07,1.41-.11,2.11,1.27.09,1.52,1.03,1.49,2.56.96.39,1.26,1.24,1.47,2.12.1.4.03.83.1,1.24.06.32.21.62.35,1.01.13-.24.22-.46.36-.62.11-.13.33-.31.42-.27.21.08.41.21.4.55-.03.81.04,1.61.61,2.27.14.17.25.37.39.59.06-.09.1-.15.14-.21.3-.39.91-.38,1.33.02.14.13.3.25.45.38.14.12.26.25.4.38.48-.7.49-.7.25-1.6-.18-.7.01-1.36.13-2.04.01-.06.09-.11.13-.16.05.78.01,1.57.18,2.32.16.73.54,1.42.84,2.17-.75-.03-.49-.83-.87-.99-.12.17-.25.5-.35.49-.38-.03-.76-.17-1.14-.28-.05-.02-.07-.12-.12-.17-.32-.39-.66-.38-.89.05-.13.23-.26.31-.5.28-.28-.03-.42-.19-.48-.45-.03-.14-.03-.29-.09-.41-.19-.33-.41-.51-.87-.44-1.11.16-2.23.12-3.34-.08-.34-.06-.69-.11-1.03-.19-.68-.15-1.21-.57-1.7-1.03-.66-.62-1.46-.78-2.3-.83-.68-.04-1.36-.02-2.05-.01-.09,0-.18.03-.26.07-.17.08-.36.26-.5.23-.12-.03-.19-.29-.28-.46-.02-.05-.02-.1-.05-.22-.73.05-1.46.08-2.18.17-.93.11-1.17.02-1.29-.86-.09-.61-.02-1.25-.02-1.86,1.21.25,2.33.15,3.44.13.1,0,.21-.15.28-.25.18-.24.33-.32.57-.06.09.1.29.16.43.14.57-.07,1.14-.16,1.69-.28.6-.13,1.07-.48,1.44-.97.52-.68,1.17-1.19,1.9-1.63.3-.18.58-.62.62-.97.11-.9.09-1.81.09-2.71,0-.25-.22-.5-.22-.75-.01-.58.05-1.16.07-1.74.01-.33,0-.66,0-.99-.69-.13-.92.19-.83,1.13-.29.03-.46-.05-.54-.37-.29-1.22-.08-2.43.07-3.64.03-.27.04-.47-.14-.75-.2-.31-.19-.8-.14-1.2.08-.73.37-1.44.04-2.18v.94l-.08.03c-.08-.11-.2-.22-.24-.35-.27-1.04-.34-2.1-.21-3.17.04-.33.09-.66.11-.99,0-.14-.04-.28-.07-.42-.04,0-.08,0-.11,0-.06.36-.1.73-.19,1.09-.03.14-.16.25-.24.38-.11-.14-.31-.27-.32-.41-.06-.98-.08-1.96-.09-2.95,0-.26.09-.51.14-.77.13-.65.26-1.31.39-1.96.02-.11.06-.22.08-.32.08-.33.29-.66-.05-.99-.08-.08-.04-.27-.06-.41-.36-.12-.47-.05-.51.33-.02.19-.09.37-.15.61-.69-.67-.8-1.49-.37-2.25.14-.24.32-.47.42-.73.06-.15.01-.35.01-.53-.04,0-.08-.02-.13-.03-.11.08-.21.17-.32.25-.18-.61-.18-.6.19-1.26.13-.23.22-.49.32-.73-.04-.03-.08-.06-.13-.08-.19.2-.38.41-.62.67-.07-.15-.19-.28-.19-.41,0-1.26.49-2.28,1.51-3.03.21-.16.43-.32.6-.51.08-.09.06-.28.08-.43-.16.04-.33.05-.47.12-.1.05-.16.17-.3.34-.04-.46.08-.78.31-1.06.4-.5.95-.71,1.56-.84.18-.04.34-.16.51-.24-.1-.15-.17-.33-.29-.46-.36-.38-.36-.47.13-.7.49-.23.97-.46,1.46-.69.1-.05.24-.12.31-.08.44.23.59-.13.79-.37.04-.04.05-.11.09-.14.16-.13.32-.26.48-.39.1.18.19.36.28.54.02.05.01.11.02.14.13,0,.25,0,.36-.02.12-.02.26-.04.33-.12.37-.43.69-.42,1.22-.2.42.18.92.15,1.38.22.22.03.44.06.65.13.13.05.33.11.19.36-.02.04.14.22.24.28.63.36.97.91,1.14,1.6.02.09.1.19.18.24.65.37,1.03.9,1.07,1.65.01.34.23.36.49.41.21.04.57,0,.49.43-.01.07.06.2.13.24.77.52.92,1.35,1.12,2.17.12.49.27.94.6,1.35.32.41.54.9.76,1.38.11.23.11.52.17.82-.22.01-.39.02-.67.04,1.27,1.2,1.25,2.72,1.27,4.3-.24-.09-.42-.16-.72-.28.19.72.34,1.37.53,2.02.2.69.51,1.35.65,2.05.11.52.02,1.08.02,1.62,0,.36,0,.72,0,1.11h-.42c.03.38.07.75.07,1.12.02.81,0,1.61.02,2.42.01.68.01,1.37.1,2.04.05.36.27.69.4,1.04.3.77.14,1.58-.06,2.31-.1.36-.12.66-.12,1.01,0,.44-.04.88-.07,1.32-.04.6-.34,1.19-.01,1.93h2.32ZM39.5,81.16q-.11.6.63,1.91c-.15.07-.3.14-.47.22.11.98-.4,1.96-.07,2.99,2.35.12,4.71.23,7.05.35.24-1.89-.3-3.68-.92-5.46h-6.22ZM19.75,86.5h8.2c.02-.56.12-1.17-.28-1.67-.11-.14-.34-.25-.51-.25-.39,0-.54-.11-.52-.52.02-.43.07-.87.03-1.29-.08-.71-.45-.86-1.01-.41-.6.48-1.13,1.07-1.77,1.47-.85.53-1.76.97-2.68,1.36-.44.18-.98.15-1.46.21v1.11ZM17.91,86.98c.49-.41.22-.92.33-1.44-.64.05-1.23.09-1.81.14-.09,0-.18.12-.25.1-.32-.1-.63-.24-.95-.36-.19.64-.07,1.28.18,1.37-.25.24-.07.5-.04.88.33-.16.58-.29.85-.42.01.08.03.19.05.32.65-.05,1.28-.1,1.92-.16v-.45c-.11,0-.2.02-.29.02ZM37.72,58.85c.02.42.04.81.06,1.21.21-.27.4-.51.58-.76.06-.08.14-.2.11-.25-.05-.1-.16-.19-.27-.22-.11-.03-.25,0-.49.02ZM18.74,85.28s-.06,0-.09,0c-.03.65-.06,1.31-.09,1.96h.18v-1.95ZM19.23,86.3s-.04,0-.06,0c-.04.4-.08.8-.1,1.2,0,.08.04.19.1.24.03.03.19,0,.21-.05.04-.08.03-.19.01-.28-.02-.13-.08-.25-.1-.38-.03-.24-.04-.49-.06-.74ZM24.32,70.07s-.1-.03-.15-.05c-.23.34-.29.73-.42,1.09l.2.06c.12-.37.25-.74.37-1.11Z"/>
  <path d="M29.82,100.84c-.09-.24-.19-.29-.47-.17-.19.08-.47-.08-.71-.14-.06-.02-.14-.11-.17-.09-.54.28-1.04-.13-1.57-.06-.63.08-1.27.1-1.9.09-.33,0-.66-.11-.99-.16-.16-.02-.32,0-.48-.01-.24-.03-.48-.08-.72-.12-.05,0-.11-.02-.16,0-.29.1-.56.07-.84-.05-.1-.04-.25.04-.38.03-.46-.01-.92-.04-1.38-.05-.47,0-.96-.06-1.41.04-.25.05-.47.27-.76.15-.13-.05-.24-.15-.38-.2-.4-.15-.69.07-.99.31-.52.41-.6.37-.77-.27-.02-.08-.06-.15-.1-.23-.23.07-.39.52-.65.09-.39.41-.59.39-1.02.11-.18-.11-.48-.02-.73-.03-.16,0-.32-.03-.48-.05,0-.04,0-.09,0-.13-.33.15-.64.35-.99.41-.19.03-.42-.17-.69-.3-.07.05-.22.16-.38.26-.09.06-.25.16-.29.13-.29-.21-.5.04-.74.15-.08-.14-.15-.25-.19-.32-.34.04-.65.07-1.03.11-.05-.14-.1-.32-.16-.51-.14,0-.28-.02-.35-.02.04-.4.11-.8.1-1.19-.01-.5.1-.92.45-1.3.22-.24.18-.64.52-.85.22-.14.34-.44.52-.65.11-.12.26-.2.4-.28.53-.32,1.1-.53,1.72-.45.39.05.48-.17.47-.46-.02-.5-.07-1-.11-1.5-.01-.18-.02-.35-.03-.53-.63.19-.76.43-.68,1.28-.54-.74-.6-1.06-.55-2.84.04-.01.08-.02.12-.03.04.15.11.31.11.46,0,.3-.02.6-.04.9.04,0,.07,0,.11,0,.1-.21.21-.42.3-.61.7.02.79.49.84.99.04.35.05.7.1,1.04.02.17.08.34.13.51h.15c.16-.49.35-1,.48-1.51.11-.4.25-.75.75-.85.05.13.12.32.23.59.11-.19.17-.3.23-.41.04,0,.09,0,.13,0,0,.29,0,.58,0,.88.01.31.04.61.07.95.67-.79.65-1.73.61-2.67.04,0,.09.02.13.02.02.11.04.23.07.4.05-.1.07-.16.16-.32.23,1.02.44,1.96.67,3,.3-.54.54-.98.79-1.42.03.02.06.03.1.05.03.41.06.83.09,1.24.06.03.12.06.17.09.66-.48,1.31-.96,2.01-1.48-.07.2-.18.41-.2.63-.02.23.03.46.06.78.14-.15.24-.21.26-.29.14-.65.69-.66,1.17-.73.38-.05.53.15.51.53-.01.32,0,.64,0,.99.46-.37.92-.68,1.29-1.08.2-.21.22-.57.34-.86.09-.23.21-.44.32-.66.07.02.15.05.22.07-.18.89-.36,1.78-.55,2.67.04.02.09.03.13.05.06-.11.13-.22.19-.33.28-.49.78-.76,1.31-.65.15.03.28.21.39.35.12.17.2.37.3.55.34-.24.63-.45.92-.65.18.13-.15.48.28.49.12,0,.22.33.32.48.23-.21.44-.41.65-.61.03.02.07.05.1.07,0,.12-.01.24-.02.32.16.08.28.14.43.22.07-.08.13-.24.24-.29.32-.15.66-.27,1.12-.44-.05.39-.09.7-.14,1.01.03.01.05.02.08.03.21-.42.42-.85.68-1.38.12.51.21.88.3,1.3.31-.27.53-.47.75-.66.31-.26.56-.21.7.17.23-.1.44-.19.7-.3.07.44.04.72-.38.85-.4.13-.56.54-.51,1.02.05.47.04.94.09,1.41.03.3.15.59.18.9.01.16-.08.34-.15.5-.05.14-.14.26-.21.39-.17.31-.33.62-.52.91-.04.07-.23.14-.27.1-.23-.17-.35-.02-.48.12h-.08ZM16.02,96.95c-.34.17-.69.33-1.03.5-.18-.05-.37-.1-.56-.16.03-.12.05-.26.11-.52-1.12.85-2.34,1.22-3.54,1.52.07-.06.18-.16.29-.24-.27-.4-.56-.13-.73.03-.5.47-1.05.39-1.62.24-.07.17-.14.31-.22.49.46,0,.84,0,1.22,0,.08,0,.16.05.24.06.36.06.73.16,1.09.17.88.02,1.44-.65,2.12-1.06.04-.03.03-.14.08-.17.16-.11.33-.21.49-.31.01.02.03.04.04.07-.04.07-.07.13-.09.17.43.35.8.07,1.17-.1.05-.02.11-.03.16-.04.05,0,.09.02.14.03h0c-.06.06-.11.13-.18.16-.63.28-1.25.56-1.87.83.36.37.88.52,1.56.4.45-.08.89-.2,1.33-.29.18-.04.36-.08.41.2.05.23.2.3.47.27.41-.05.82-.05,1.17-.32.09-.07.24-.08.36-.07.34.04.69.17,1.03.15.45-.02.74.14.91.53.17,0,.31-.02.44,0,.44.07.88.19,1.32.23.26.03.53-.06.79-.07.39-.01.77.02,1.16,0,.34-.02.67-.13,1.01-.12.17,0,.34.16.51.25.03-.35.22.02.35,0,.47-.06.93-.12,1.4-.17.2-.02.41-.06.61-.05.37.02.67-.09.91-.36,0,0,0,0,0,0,.05,0,.14.02.16,0,.23-.4.51-.78.47-1.28-.03-.44-.06-.89-.06-1.34,0-.4.05-.81.08-1.21-.05,0-.1-.02-.15-.02l-.29,1.23s-.08-.01-.13-.02c-.04-.21-.09-.41-.13-.62-.03,0-.06,0-.09-.01l-.35.75s-.09,0-.14.01c-.07-.37-.15-.74-.25-1.25-.41.44-.76.83-1.13,1.23.18.09.29.15.36.19.16-.19.31-.37.48-.57.45.77.14,1.32-.56,1.33-.31.29-.55.53-.81.74-.04.03-.23-.05-.28-.13-.1-.17-.16-.37-.26-.62q-.06.57-.32.65c-.1-.32-.2-.65-.32-1.05-.1.67-.18,1.25-.26,1.83-.03,0-.06,0-.09-.01-.01-.14-.02-.29-.04-.47-.11.14-.19.25-.29.39-.06-.16-.1-.27-.11-.31-.23.04-.43.08-.64.12-.13-.51-.5.06-.71-.16.05-.17.11-.34.16-.52.12-.08.24-.17.43-.29-.06-.35-.14-.8-.22-1.25.04-.02.08-.04.11-.06.08.07.2.13.22.22.12.46.22.92.33,1.44.12-.2.21-.36.31-.53.09.27.17.51.27.8.28-.41.25-.76,0-1.19-.03.11-.04.18-.05.22-.45-.44-.32-.91-.27-1.38.03-.26.08-.54.05-.79-.03-.21-.16-.56-.28-.57-.27-.03-.63-.11-.81.26-.03.07-.07.17-.13.2-.31.15-.44.39-.39.72.08.6.14,1.2.24,1.8.02.14.13.27.2.4-.51.03-1.02.06-1.56.09.04.3.07.52.09.74-.03.01-.05.02-.08.03-.07-.15-.14-.3-.21-.44-.16.17-.32.34-.49.54-.05-.09-.08-.14-.11-.19-.02-.04-.04-.08-.05-.12-.01.04-.03.08-.04.12-.14-.02-.27-.03-.47-.06,0,0-.07.07-.13.13-.26-.18-.55-.34-.32-.72.13-.22.28-.43.41-.64.02.01.04.02.07.03-.02.1-.05.2-.08.34.2-.02.37-.04.56-.06-.01.12-.03.26-.05.46.12-.15.2-.25.22-.27-.32-.69-.62-1.34-.95-2.06.2.03.32.09.37.05.41-.32.45,0,.52.29.06.27.13.54.2.83q.3-.3.65-.08s.07,0,.1,0c.27-.06.55-.11.78-.16-.08-.59-.15-1.17-.23-1.74-.04.01-.09.03-.14.04.02-.35.03-.7.05-1.12-.3.33-.57.63-.91,1.01.06-.3.09-.48.15-.77-.31.39-.56.7-.83,1.04-.06-.46-.08-.86-.17-1.24-.08-.36-.27-.42-.57-.23-.36.23-.7.45-.6.98.02.09-.12.22-.19.33-.09-.07-.21-.13-.26-.23-.15-.28-.27-.57-.41-.88-.11.16-.24.29-.31.45-.13.33-.44.45-.69.52-.5.12-.72.24-.85.73-.03.1-.08.19-.17.39-.07-.62-.12-1.11-.19-1.67-.13.25-.21.41-.35.68-.38-.47-.46-1.01-.65-1.62-.38.85-.71,1.6-1.05,2.35-.03,0-.05,0-.08.01-.06-.37-.12-.75-.18-1.09-.78.28-1.56.62-2.37.84-.6.17-1.05.48-1.46.9.02.04.04.08.06.12.86-.33,1.72-.66,2.58-.99,0,.01.01.02.02.03-.15.12-.31.25-.46.37.01.01.02.03.03.04.05-.02.1-.04.15-.05h0c-.18.08-.35.16-.53.23-.16.06-.38.06-.48.18-.23.28-.41.61-.61.92-.04-.02-.07-.04-.11-.07.07.06.13.13.19.18.15-.09.3-.2.47-.26.24-.09.52-.11.75-.23.32-.18.59-.33.71.17.34-.16.67-.31,1.01-.48.02-.39.38-.65.9-.59.49.05.65.19.59.5.22-.03.46-.06.69-.1,0,.03.02.06.02.09-.12.08-.24.17-.36.25h.02ZM26.1,94.81c-.79.35-1.28,1.48-.97,1.96.13-.08.25-.16.37-.24.06.13.11.26.18.41.7-.54.52.34.75.47.15-.11.28-.19.39-.3.04-.04,0-.15-.01-.22-.02-.12-.1-.25-.08-.35.03-.1.16-.18.25-.27.45-.41.51-.78.11-1.14-.26.45-.5.89-.74,1.32-.03-.01-.06-.03-.09-.04v-1.1c-.11.17-.2.3-.28.43.04-.3.08-.58.12-.92ZM14.2,94.21c-.13-.3-.27-.61-.43-.98-.04.19-.06.31-.08.43-.02,0-.04,0-.06,0v-.64s-.04,0-.06,0c-.22.57-.44,1.14-.64,1.69.36-.14.81-.31,1.28-.49ZM10.03,98.03c.27-.32.51-.6.77-.92-.32.03-.57.05-.81.09-.34.05-.35.35.04.83Z"/>
  <path d="M9.7,80.08c.32-.49.62-.98.95-1.45.07-.09.24-.11.46-.2-.12.9.14,1.59.74,2.21.17-.66.32-1.27.48-1.89.05-.01.1-.02.14-.04.1.17.28.34.3.52.05.52.34.9.64,1.37.3-.64.59-1.24.88-1.85.04-.01.09-.02.13-.03.13.34.26.68.39,1.04.03-.15.04-.32.09-.48.05-.16.14-.32.24-.53.55.58.45,1.34.83,1.93,0-.93.32-1.74.91-2.53.1.45.2.89.29,1.34.01.05-.01.12.01.17.07.13.16.25.24.38.06-.13.13-.25.19-.38.09-.18.16-.37.26-.57.13.1.21.16.35.28-.15-.78.6-.75.84-1.21.14.24.23.4.35.62.09-.23.17-.41.27-.64.16.13.29.24.43.36.18-.23.08-.83.7-.5.3-1.04.59-2.07.89-3.09.04.01.07.02.11.03.14,1.3-.49,2.44-.79,3.78-.18-.22-.3-.37-.45-.54-.1.27-.21.54-.33.86-.13-.11-.23-.2-.36-.32-.03.29-.05.54-.07.78-.03.41-.06.43-.47.22-.05.19-.09.37-.14.56-.43,0-.53-.31-.6-.72-.09.16-.15.25-.22.37-.13-.11-.25-.21-.41-.34-.05.22-.07.44-.16.63-.07.14-.22.25-.33.37-.09-.1-.22-.18-.26-.3-.15-.43-.27-.87-.39-1.27-.53.48-.47,1.15-.5,1.82,0,.18-.22.35-.34.53-.13-.12-.3-.23-.39-.38-.1-.16-.14-.36-.29-.54,0,.23.02.45,0,.67-.03.2-.11.4-.19.64-.79-.5-.43-1.34-.75-1.96-.37.93-.73,1.83-1.1,2.74-.7-.51-.92-1.21-.78-2.06-.06,0-.11,0-.17,0-.06.42-.08.85-.18,1.26-.05.19-.28.47-.41.46-.22-.02-.54-.18-.63-.37-.22-.46-.33-.97-.48-1.46-.04,0-.08,0-.12,0-.01.21-.06.43-.03.64.05.39-.26,1.17-.6,1.33-.08.04-.31-.07-.33-.15-.18-.63-.35-1.26-.48-1.9-.06-.3.12-.5.46-.56.07.12.14.24.2.34Z"/>
  <path d="M9.69,71.97c.02-.18.06-.36.07-.54.03-.67.07-1.34.08-2.01,0-.08-.13-.23-.19-.23-.11.01-.24.09-.3.18-.12.18-.2.38-.37.53.17-.34.34-.68.51-1.03.99.14.35.97.66,1.37.2-.33.42-.7.65-1.06.05.02.09.04.14.06.18.62-.22,1.16-.33,1.8.22-.29.4-.52.62-.81.11.19.18.32.26.45.25-.44.49-.88.73-1.31.04.02.09.03.13.05.06.81.13,1.62.2,2.47.24-.32.47-.62.69-.92.05.02.1.03.15.05.04.22.08.44.12.69.1,0,.22,0,.33.02.36.68.1,1.38.09,2.14.24-.55.45-1.03.66-1.51.07-.17.15-.34.25-.49.29-.42.47-.46.96-.17.17-.85.62-1.43,1.53-1.71.08-.28.18-.67.28-1.06.05,0,.09,0,.14.01.06.23.11.46.18.74.32-.53.24-1.21.72-1.59.27.15.54.43.75.39.24-.04.43-.37.65-.57.12-.11.25-.22.37-.33.03.02.07.05.1.07-.26.41-.48.84-.78,1.22-.38.48-.46.47-.93.1-.05-.04-.1-.08-.18-.14-.22.66-.42,1.28-.66,2-.19-.21-.3-.32-.39-.41-.07.26-.14.53-.21.8-.04,0-.08,0-.12,0-.08-.18-.17-.37-.24-.53-.19.16-.45.3-.55.5-.15.33-.23.71-.27,1.08-.06.56-.06,1.12-.1,1.68,0,.1-.06.2-.1.34-.72-.39-.43-1.16-.79-1.79-.34.84-.72,1.58-.92,2.35-.2.78-.24,1.61-.35,2.51-.64-.43-.66-1-.69-1.52-.03-.58.05-1.18.07-1.76,0-.11-.09-.22-.14-.33-.13-.32-.26-.65-.4-1.02-.15.42-.3.86-.47,1.32-.31-.17-.31-.44-.25-.67.25-1.03.19-2.06-.03-3.13-.29.74-.59,1.48-.88,2.22-.04,0-.08-.01-.11-.02v-1.26c-.24.37-.44.69-.65,1-.06-.02-.13-.03-.19-.05.01-.22-.01-.45.05-.66.15-.52.33-1.03.49-1.54.02-.06,0-.14,0-.21-.04,0-.08-.02-.12-.03l-.8,2.31s-.07-.02-.1-.03Z"/>
  <path d="M27.74,74.81c-.15.43-.28.77-.4,1.11-.65-.18-.71-.29-.67-.97.03-.53,0-1.06,0-1.6-.04,0-.09,0-.13,0-.17.15-.35.3-.57.49-.06-.12-.17-.24-.15-.3.17-.41.33-.84.58-1.21.18-.26.41-.17.51.14.12.39.24.77.36,1.18.18-.13.35-.25.55-.39.17.32.33.61.49.89.21-.45.4-.9.62-1.34.06-.12.21-.3.3-.29.14.01.33.15.37.27.13.42.2.86.29,1.3.03.13.06.25.09.41.17-.4.33-.76.48-1.11.56.22.38.73.59,1.11.2-.49.41-.97.61-1.47q.31.2.8,1.24c.07-.48.15-.96.22-1.44.06-.36.09-.72.19-1.07.04-.14.2-.3.33-.33.1-.03.31.1.37.21.15.29.25.61.38.92.08.18.17.36.29.6.09-.14.15-.19.15-.25,0-.53.31-.86.68-1.19.17-.15.18-.47.3-.68.11-.18-.02-.6.44-.47.01,0,.07-.11.09-.18.29-.67.57-1.34.87-2,.04-.09.09-.18.16-.24.09-.09.21-.15.31-.22.02.13.1.27.06.38-.26.87-.54,1.75-.83,2.61-.16.47-.37.92-.55,1.37-.61-.09-.77,0-1,.57-.05.13.01.44-.34.31-.05-.02-.22.32-.4.59-.26-.65-.49-1.21-.76-1.87-.12.23-.27.41-.29.61-.07.63-.1,1.26-.14,1.89,0,.07-.05.13-.08.19-.11.17-.22.34-.33.5-.19-.18-.4-.35-.58-.55-.07-.07-.08-.2-.15-.42-.11.24-.17.41-.25.56-.1.17-.22.33-.33.5-.16-.14-.33-.27-.49-.41-.07-.06-.11-.16-.25-.37-.25,1.02-.48,1.94-.71,2.87-.33-.07-.34-.38-.32-.62.04-.59.18-1.17.19-1.75,0-.56-.11-1.12-.18-1.72-.54.7-.65,1.46-.73,2.23-.02.18-.21.35-.32.52-.18-.14-.41-.24-.53-.42-.11-.16-.11-.4-.19-.7Z"/>
  <path d="M35.54,80.49c.13-.45.26-.88.42-1.41.23.26.38.42.56.62.08-.17.16-.32.21-.47.16-.49.3-.99.48-1.48.05-.13.18-.22.28-.33.09.12.26.25.27.37,0,.34-.03.69-.11,1.01-.11.43-.31.84-.44,1.26-.19.6-.31.68-.93.44-.06.2-.18.39-.18.59,0,.4-.15.55-.54.39-.05.32-.13.61-.14.9-.01.32-.22.46-.46.49-.29.03-.4-.21-.44-.47-.05-.31-.11-.62-.17-.95-.55.26-.44.77-.54,1.17-.13.52-.19,1.06-.28,1.59-.47-.1-.5-.16-.65-.95-.03.19-.05.38-.1.56-.04.15-.12.29-.18.44-.15-.07-.31-.13-.46-.2-.01.11-.03.27-.05.42-.05,0-.1.02-.15.03-.07-.33-.14-.65-.24-1.1-.09.3-.16.51-.23.75-.33-.06-.3-.33-.31-.57-.03-.52-.03-1.04-.08-1.55-.02-.17-.16-.34-.3-.6-.22.86-.41,1.57-.61,2.33-.12-.07-.22-.1-.24-.16-.15-.48-.29-.97-.44-1.45-.07-.24-.15-.49-.23-.75-.17.35-.31.64-.49,1-.45-.57-.2-1.13-.4-1.69l-.56,1.12c-.05-.67.25-1.17.66-1.76.25.55.27,1.01.18,1.49.04,0,.08.01.12.02.11-.31.22-.61.37-1.01.18.39.32.7.48,1.06.07-.28.12-.5.19-.7.04-.11.13-.19.2-.28.08.08.17.16.24.25.05.06.08.15.12.22.14-.25.28-.49.48-.83.46.9.44,1.77.63,2.62.11,0,.24.01.38.02.03-.33.06-.68.1-1.03.04,0,.08-.02.12-.02.11.22.22.45.35.69.07-.43.14-.84.2-1.27.59.21.44.75.65,1.13.08-.78.4-1.45.94-2.19.24.57.44,1.04.68,1.6.08-.41.12-.72.2-1.02.06-.23.08-.58.46-.3Z"/>
  <path d="M33.94,63.4c.1.46.21.92.31,1.37.1-.27.2-.56.3-.85.05,0,.11,0,.16,0,.12.38.24.76.36,1.13.04,0,.08,0,.12,0,.06-.61.13-1.22.2-1.89.13.11.21.17.35.28v-2.59c.47.39.38.89.57,1.31.01-.27.03-.54.05-.94.11.2.21.29.21.39.02.46.03.93,0,1.39-.03.42-.3.16-.5.12-.06.54-.11,1.06-.17,1.61-.1-.02-.19-.04-.3-.06-.04.24-.09.47-.12.7-.05.34-.24.28-.4.12-.15-.15-.25-.36-.41-.6-.08.62-.16,1.19-.23,1.77-.49-.17-.5-.19-.58-1.17-.14-.04-.28-.09-.43-.13-.1.16-.21.34-.39.62-.13-.33-.23-.57-.32-.8-.02.17,0,.51-.08.54-.49.17-.25.68-.59.96-.07-.14-.19-.3-.23-.47-.21-.89-.4-1.78-.59-2.68-.06,0-.11,0-.17,0-.09.84-.18,1.68-.27,2.61-.2-.16-.28-.22-.41-.32-.03.2-.06.36-.09.51-.03.02-.06.04-.09.06-.25-.44-.51-.88-.83-1.44-.16.68-.3,1.25-.45,1.86-.12-.09-.2-.16-.3-.24-.07.24-.14.45-.24.79-.1-.29-.19-.47-.23-.66-.14-.77-.27-1.54-.41-2.33-.72.46-.72,1.16-.83,1.83-.04.25-.19.48-.29.72-.35-.14-.49-.37-.44-.68.08-.45.15-.9.29-1.33.12-.38.07-.64-.28-.92-.11-.08-.19-.19-.29-.29.05-.04.09-.08.14-.13.27.3.55.6.82.91.09-.24.15-.56.31-.81.1-.16.35-.22.66-.39.17.96.33,1.84.49,2.74.05-.15.09-.31.15-.46.08-.2.03-.52.42-.44.02,0,.1-.12.11-.19.04-.32.22-.49.61-.54.12.35.25.72.41,1.21.12-.52.2-.91.31-1.29.03-.09.16-.14.33-.28.02-.23.05-.59.11-.95.01-.09.12-.23.19-.23.1,0,.26.06.29.15.13.3.24.62.33.94.16.55.3,1.1.52,1.64.06-.22.13-.43.2-.67.11.04.21.08.32.12.08-.26.15-.49.22-.73.03,0,.06-.01.09-.02.05.19.1.37.19.68.06-.39.1-.67.14-.95.03-.02.06-.05.1-.07.05.12.11.24.2.46.1-.44.17-.73.23-1.01.05,0,.11,0,.16-.01Z"/>
  <path d="M10.96,59.53c.07.19.12.34.16.48.15-.12.29-.23.52-.41.03.29.05.48.07.74.07-.19.1-.33.17-.43.1-.15.27-.41.35-.39.47.12.36-.28.46-.47.18-.33.32-.68.5-1,.04-.07.18-.11.28-.11.04,0,.09.15.11.24.01.09,0,.19-.02.29-.09.67-.2,1.33.31,1.92.14.17.13.47.19.71.24-.48.45-.95.7-1.39.11-.2.27-.41.43-.25.44-.16.82-.29,1.19-.43.12-.05.24-.13.32-.23.25-.31.47-.64.71-.97.04.01.09.02.13.03-.02.26-.04.52-.07.8.55-.37.76-1.17,1.57-1.23.07.23.12.36-.17.52-.35.2-.6.55-.9.84-.22.21-.45.41-.74.67-.08-.26-.12-.39-.15-.52-.2.21-.39.59-.61.61-.56.04-.47.58-.73.76-.56.41-.44,1.09-.76,1.57-.02.03-.06.05-.13.11-.1-.15-.2-.29-.31-.45-.16.82-.31,1.59-.48,2.36-.03.15-.17.28-.25.42-.11-.15-.3-.3-.31-.45-.02-.72.02-1.43.02-2.15,0-.3.02-.64-.11-.89-.26-.52-.44-1.02-.27-1.61.02-.06,0-.14,0-.31-.37.81-.3,1.68-.78,2.35l-.12-.02c-.01-.32-.03-.64-.05-1.08-.23.62-.42,1.14-.64,1.72-.48-.39-.16-.83-.2-1.3-.17.49-.32.9-.49,1.39-.44-.52-.18-1.04-.19-1.62-.54.9-.36,1.95-.93,2.81-.3-.5-.13-.95-.12-1.38.01-.79.09-1.58.15-2.39.04.69.09,1.37.13,2.03.25-.65.2-1.52,1.08-1.9Z"/>
  <path d="M14.03,48.95c-.11.44-.21.88-.32,1.32.03.02.05.03.08.05.25-.36.5-.72.83-1.19.1.35.17.57.23.77.14-.2.29-.42.5-.71.08.2.12.31.16.41.09-.02.19-.05.3-.07.04.2.07.38.11.57.02,0,.04,0,.06,0,.04-.15.05-.32.14-.43.12-.16.3-.28.46-.41.35-.29.71-.57,1.04-.87.17-.15.28-.36.42-.53.09.04.12.05.13.07.1.17.2.35.3.52.11-.16.22-.31.33-.47.08-.11.14-.25.24-.33.09-.07.26-.15.33-.11.1.06.21.23.2.33-.01.1-.18.28-.27.27-.26-.02-.28.13-.33.31-.04.13-.13.25-.18.38-.18.47-.72.44-.98-.02-.39.72-.77,1.42-1.17,2.16-.13-.15-.2-.23-.27-.32-.2.77-.4,1.54-.6,2.31-.06,0-.12-.02-.18-.03-.25-.73-.16-1.49-.11-2.26-.09.1-.18.19-.31.33-.06-.16-.1-.28-.14-.41-.18.22-.35.44-.53.65-.04-.01-.07-.03-.11-.04v-.94c-.32.27-.66.57-1.07.91-.23-.62.11-1.02.14-1.49-.23.32-.45.63-.75,1.05-.02-.26-.03-.41-.05-.56-.06.05-.13.1-.21.17-.14-.28-.27-.53-.42-.83-.36.28-.72.56-1.08.85-.28-.32-.14-.79.48-1.4-.11.29-.23.58-.34.86.02.02.04.03.06.05.21-.18.42-.36.64-.54.41-.34.49-.32.69.14.02.05.07.08.12.14.25-.35.48-.69.72-1.03.04.02.09.04.13.06-.04.2-.08.41-.13.62.2-.15.38-.29.57-.42.04.04.09.08.13.12Z"/>
  <path d="M18.54,52.72c-.23.5-.43,1.01-.7,1.48-.16.29-.52.21-.62-.1-.06-.2-.08-.4-.13-.64-.24.44-.47.85-.7,1.27-.05,0-.09,0-.14,0-.05-.14-.11-.27-.14-.42-.03-.16-.04-.33-.07-.58-.36.47-.27,1.16-.91,1.36-.08-.18-.16-.35-.24-.53q-.43.67-.76.26c-.22.39-.44.77-.68,1.2-.17-.15-.27-.23-.33-.29-.1.39-.19.79-.29,1.19-.05,0-.1,0-.14-.01-.38-.5.04-1.08-.09-1.62-.14-.55-.1-1.14-.15-1.73-.17.23-.34.46-.51.69-.03-.01-.06-.02-.1-.04-.01-.16-.03-.31-.04-.44-.31.27-.61.54-.9.8-.16-.08-.29-.14-.43-.21.06-.39.09-.39.51-.29.13.03.35-.07.46-.17.17-.17.29-.39.49-.68.07.24.1.37.14.51.2-.33.4-.65.6-.97.04.02.08.03.12.05v1.89c.3-.44.58-.84.85-1.23.05.02.09.04.14.06.02.11.04.23.06.34.22-.24.45-.48.71-.76.1.17.16.27.22.39.14-.1.26-.2.46-.35.09.28.16.5.24.75.26-.38.27-.96.89-1.14.06.27.13.54.18.78.24-.3.48-.61.72-.91.05.01.1.02.15.04.08.34.16.68.26,1.09.31-.41.26-.94.74-1.11.05.02.09.05.14.07Z"/>
  <path d="M28.37,56.43c.11.5.22,1,.33,1.53.45-1,.5-1.02.92-.48.1-.13.19-.27.3-.39.08-.08.19-.14.28-.21.07.11.19.21.2.32.03.21,0,.44.09.68.14-.32.28-.65.43-.97.03.01.07.03.1.04-.24.7-.47,1.4-.74,2.19-.41-.56-.03-1.08-.13-1.56-.04,0-.08-.02-.12-.02-.11.45-.22.89-.34,1.38-.51-.31-.16-.8-.42-1.2-.15.5-.31,1.01-.46,1.51-.03,0-.06.02-.1.02-.05-.12-.14-.24-.15-.37-.07-.51-.11-1.03-.18-1.54-.01-.11-.1-.21-.15-.31-.11.06-.24.09-.32.17-.34.35-.66.72-1,1.07-.38.41-.56.4-.98-.04-.15.12-.29.24-.45.36-.46-.14-.56-.34-.39-.79.13-.34.28-.66.04-1.06-.16-.27,0-.67-.28-.95-.05-.05.04-.26.09-.38.1-.25.22-.5.33-.75-.16-.07-.29-.12-.45-.19.45-.34.44-.33.79.12.12.15.3.24.47.37-.14.34-.25.7-.42,1.03-.23.45-.33.84.17,1.17q.7-.69,1.22-.19c.18-.18.34-.42.56-.53.18-.09.43-.02.65-.02.04-.01.08-.03.12-.04Z"/>
  <path d="M25.41,42.63c-.1.17-.17.34-.29.44-.17.15-.21.61-.61.31-.01,0-.11.08-.15.13-.08.11-.14.24-.21.36-.06-.04-.11-.07-.17-.11v-.79c-.25.22-.44.39-.63.55-.04-.01-.08-.02-.11-.03.01-.22.02-.44.03-.69-.31.43-.61.85-.91,1.27-.05-.02-.1-.04-.16-.06.01-.25.02-.5.04-.82-.18.35-.34.66-.5.97.2-.73.47-1.41.91-2.01.04.02.09.03.13.05-.07.35-.14.7-.23,1.14.42-.46.45-1.13,1.11-1.35v.7c.25-.17.48-.32.77-.51v.69c.74-.03.87-.63,1.06-1.18.08-.24.13-.49.23-.71.06-.12.2-.2.38-.24-.04.26-.07.52-.11.78.21.09.3-.45.56-.13.13-.11.29-.23.49-.39.06.27.1.47.14.67.16-.26.33-.52.5-.79.04.02.07.03.11.05.06.28.12.55.19.9.34-.36.09-.99.72-1.11,0,.26-.03.5,0,.73.03.18.13.35.21.51.08.16.17.32.24.49,0,.02-.1.14-.13.13-.2-.08-.4-.17-.59-.27-.04-.02-.07-.08-.1-.13-.42.35-.45.35-.86-.06-.33.48-.42.5-.64.22-.36.34-.72.68-1.16,1.09-.11-.29-.19-.52-.29-.78Z"/>
  <path d="M36.28,42.45c-.28,1.02.13,2.03-.22,3.02q-.33-.25-.57-2.09c-.53-.01-.67-.14-.76-.72h-.56c-.03-.24-.05-.44-.07-.69-.14.06-.23.1-.31.14-.44-.18.19-.86-.46-.93.03-.21.06-.39.09-.62-.22.02-.49.38-.57-.1-.22.15-.41.28-.6.41l-.12-.05c.08-.27.15-.54.24-.86-.14.11-.25.2-.37.29-.02-.01-.03-.03-.05-.04.2-.21.4-.42.6-.64.03.01.05.03.08.04-.1.28-.19.57-.29.85.03.02.05.04.08.06.27-.25.53-.49.86-.8-.03.23-.04.37-.06.5.18-.1.35-.19.52-.27.02.23.03.47.05.72.08-.01.18-.03.34-.05-.02.23-.04.43-.06.65.18-.09.32-.16.52-.25.05.24.1.44.14.64.19-.08.38-.17.65-.29.01.22.03.36.02.51-.04.56,0,.62.55.56.08,0,.16,0,.33.02Z"/>
  <path d="M31.77,57.15c.02-.13.04-.26.06-.39.02,0,.04,0,.07,0,.13.55.25,1.1.38,1.65h.05c-.05-.63-.11-1.24-.16-1.86.06-.02.12-.04.18-.05.14.22.28.44.37.59.19-.33.4-.7.64-1.13.12.11.23.21.36.32.07-.14.13-.27.22-.45.09.18.16.31.28.53.13-.84-.04-1.69.5-2.36.05,0,.09,0,.14,0,.05.5.1,1,.15,1.53-.17,0-.26-.01-.33-.01-.07.62-.14,1.24-.21,1.87-.05,0-.09.02-.14.03-.23-.21-.46-.43-.74-.68-.05.18-.06.31-.1.32-.61.15-.4.64-.42,1.03-.01.31,0,.63,0,.97-.44-.15-.35-.49-.41-.76-.06-.27-.1-.54-.2-.81.06.56.11,1.12.17,1.68-.06.02-.12.03-.18.05-.21-.66-.71-1.21-.66-1.97,0-.03,0-.05-.02-.07Z"/>
  <path d="M29.29,53.52c-.36-.27-.71-.55-1.09-.84v1.2c-.23-.16-.37-.22-.45-.33-.1-.16-.16-.35-.23-.53-.15-.41-.11-.92-.64-1.11-.08-.03-.13-.17-.26-.35-.04.38-.06.66-.1.98-.55-.18-.43-.71-.7-1.08-.1.26-.19.5-.28.73-.31-.3-.17-1.26.25-1.72.13.19.25.37.38.58.06-.18.12-.33.2-.55.79.64.94,1.6,1.38,2.4v-1.9c.45.26.65.56.77.95.12.36.29.71.46,1.11.07-.11.11-.16.13-.21.05.15.1.31.15.48,0,.06,0,.13,0,.19Z"/>
  <path d="M25.59,35.93c.13.05.24.1.4.16v-.95c.18.09.3.15.42.21.07-.31-.36-.7.17-.9-.06-.29-.11-.57-.17-.86.06-.04.11-.07.17-.11.13.17.27.34.4.5.02,0,.04,0,.06,0-.1-.33-.19-.65-.29-.98l.13-.07c.19.33.59.73.52.98-.16.55.18.96.09,1.49-.16-.29-.33-.59-.49-.88-.02,0-.03,0-.05,0,.1.31.2.61.29.92-.05.02-.09.04-.14.07-.14-.16-.29-.32-.43-.47-.02,0-.04.01-.06.02.11.4.21.8.32,1.2-.03.02-.05.04-.08.06-.18-.19-.36-.38-.62-.66.06.46.11.83.18,1.28-.2-.14-.36-.25-.54-.38-.04.18-.09.34-.11.5-.05.38-.11.72-.65.55-.1-.03-.29.15-.4.28-.13.16-.22.35-.38.63-.1-.2-.27-.38-.23-.48.12-.33.31-.64.49-.95.03-.05.13-.1.18-.09.77.21.62-.41.74-.8.02-.08.06-.15.09-.26Z"/>
  <path d="M34.91,40.34c-.15.03-.31.1-.35.06-.14-.14-.3-.32-.33-.5-.13-.81-.03-1.61.2-2.39.04,0,.07,0,.11,0,0,.17.02.35,0,.52-.09.57-.17,1.14-.04,1.83.12-.36.21-.61.29-.86.06,0,.12,0,.18-.01.12.38.24.77.32,1.03.27.13.55.18.67.34.15.2.19.49.29.77.11-.08.2-.15.38-.28.18.47.35.91.53,1.39.06-.14.1-.25.17-.42.32.71.62,1.38.95,2.13-.13-.1-.24-.14-.29-.22-.45-.67-1.22-1.12-1.29-2.03,0-.05-.05-.09-.07-.13-.79.4-.57-.49-.9-.7-.11.16-.21.31-.36.53-.16-.23-.31-.38-.38-.56-.07-.17-.06-.37-.09-.51Z"/>
  <path d="M29.29,53.52c0-.06,0-.13,0-.19.08-.47.17-.94.25-1.37.23-.14.45-.37.66-.36.22,0,.43.25.66.4.06-.14.12-.27.19-.43.19.15.37.28.54.41.36-.17.45-.96,1.1-.43-.28.51-.57,1.02-.88,1.58-.1-.05-.26-.14-.48-.25.02.24.03.45.04.66-.4,0-.56-.27-.86-1.49-.18.38-.34.65-.44.94-.1.31-.24.43-.51.29-.1.09-.19.16-.27.24Z"/>
  <path d="M31.62,35.5v-.85c.3.22.54.39.8.57.09-.16.15-.28.23-.42.12.06.23.12.38.2.04-.36.05-.68.11-.99.02-.13.11-.28.22-.34.06-.03.25.07.32.16.16.2.28.42.42.64l-.14.1c-.16-.26-.32-.52-.48-.78-.05.02-.11.05-.16.07.09.3.17.61.27.91.06.2.12.38-.22.34.01.17.02.34.04.59-.17-.09-.3-.17-.44-.24-.01.08-.02.19-.04.33-.16-.04-.31-.08-.53-.14.01.21.02.38.04.61-.13-.04-.24-.08-.37-.12-.02.1-.04.22-.08.39-.16-.14-.29-.24-.46-.39v1.08s-.07.03-.1.05c-.22-.23-.44-.46-.75-.79-.07.38-.12.66-.17.95-.27-.21-.35-.98-.14-1.14.08-.06.24-.06.34-.02.15.06.28.18.5.32-.03-.26-.06-.47-.06-.68,0-.14.03-.31.11-.42.04-.05.23,0,.39.02Z"/>
  <path d="M30.8,28.2c.17,0,.34-.05.41,0,.33.27.5,1.6.28,1.99-.03,0-.07,0-.08,0-.28-.5-.95-.72-.96-1.44,0-.29-.28-.58-.68-.61-.12,0-.25-.12-.35-.22-.53-.54-.53-.54-.62-1.13.09.2.15.32.25.55.1-.43.18-.76.25-1.1.04,0,.08,0,.13-.01.08.3.16.6.21.82.73.1.93.67,1.14,1.14Z"/>
  <path d="M28.45,38.11c-.17-.05-.33-.11-.48-.15-.5.66-.99,1.3-1.47,1.95-.48-.13-.64-.49-.35-.9.26-.37.59-.69.9-1.03.05-.05.1-.1.14-.16q.34-.55.84-.36c.22-.31.44-.6.63-.91.06-.09.02-.24.03-.37,0-.14.02-.27.04-.41.04,0,.07,0,.11,0,.08.41.15.81.23,1.23-.54.16-.38.69-.61,1.1Z"/>
  <path d="M32.04,42.94c-.22-.01-.38-.02-.55-.03-.06,0-.15-.03-.17,0-.35.36-.6.11-.83-.14-.25-.28-.22-.65,0-.93.16.29.32.6.49.92l.12-.04c.08-.28.16-.55.25-.83.05-.01.1-.03.15-.04.09.53.26.89.85.47.12.36.26.67.32,1,.05.31.24.39.49.49.19.08.37.24.5.41.13.17.22.38.28.59.04.13.04.34-.03.42-.16.16-.39.13-.48-.1-.17-.41-.37-.76-.87-.87-.11-.02-.21-.25-.26-.4-.1-.32-.17-.64-.24-.9Z"/>
  <path d="M13.63,22.46c-.04-.11-.08-.19-.13-.32-.09.1-.15.18-.2.24-.11-.12-.22-.23-.35-.36-.07.2-.12.32-.16.43-.38-.28-.88-.43-.99-.96.38,0,.76.16,1.11-.23.1-.11.54-.06.81-.08.51-.04.66.63,1.17.38-.05.29-.08.49-.11.73-.45-.34-.35.23-.6.34v-.69c-.19.18-.36.34-.56.51Z"/>
  <path d="M38.04,50.75c-.1-.15-.25-.28-.3-.44-.1-.3-.13-.63-.22-.94-.08-.26-.2-.51-.29-.78-.11-.32-.2-.65-.32-.96-.08-.22-.15-.5-.32-.64-.45-.37-.55-.64-.26-1.26.1.16.26.29.23.39-.09.34.16.49.32.7.15.2.33.41.37.64.08.54.35.97.6,1.44.3.54.43,1.16.34,1.79-.05.02-.1.05-.15.07Z"/>
  <path d="M23.07,37.9c-.18-.13-.26-.19-.37-.27.05.4.07.75-.47.76-.1,0-.2.2-.3.31-.3-.31-.2-.75.25-.9.25-.09.23-.23.29-.42.13-.44.33-.87.5-1.3.04-.11.06-.23.08-.34.03-.17.04-.33.13-.5.36.67.1,1.39.28,2.06-.05.02-.1.03-.15.05l-.27-.71s-.03,0-.05.01c.02.38.05.76.08,1.25Z"/>
  <path d="M31.07,32.55c-.19-.2-.33-.34-.47-.49-.11.18-.21.33-.32.5-.52-.45-.05-.97-.16-1.51-.19.23-.35.41-.53.62-.66-.41-.2-1.05-.4-1.53.05,0,.1-.02.14-.03.05.33.1.66.15,1,.03-.02.05-.04.08-.06.18-.14.35-.28.53-.42.1.2.19.41.3.61.05.09.12.2.21.24.29.15.54.62.45,1.05Z"/>
  <path d="M38.44,46.9c-.14-.14-.3-.3-.47-.46.03-.04.07-.07.1-.11.08.07.15.14.25.22.08-.09.16-.17.33-.36.08.24.2.42.19.59,0,.3.1.53.21.81.3.71.47,1.47.7,2.21l-.15.08c-.11-.13-.25-.25-.32-.4-.15-.3-.26-.61-.38-.92-.06-.15-.07-.33-.13-.48-.05-.16-.15-.3-.2-.45-.07-.24-.1-.48-.16-.73Z"/>
  <path d="M23.91,32.04c-.08.53-.18,1.05-.24,1.58-.02.18.03.38.05.56.01.14.02.27.03.41.03.2.08.41.09.61.01.14-.02.28-.04.42h-.13c-.11-.4-.27-.78-.32-1.19-.08-.69-.21-1.4.04-2.08.06-.16.28-.26.42-.39.03.02.06.04.1.07Z"/>
  <path d="M33.29,33.43c-.24-.16-.36-.32-.3-.63.06-.34.14-.73-.4-.85-.12-.03-.19-.29-.29-.46.24.08.45.1.58.21.17.15.31.36.42.57.08.17.15.26.34.38.28.17.46.53.64.83.09.15.12.35.17.54-.3.06-.41-.16-.48-.39-.18-.64-.18-.65-.69-.2Z"/>
  <path d="M20.76,22.53c-.16.08-.32.15-.46.25-.24.16-.29-.05-.36-.18-.08-.14-.11-.32-.2-.45-.06-.07-.2-.08-.31-.12-.04.03-.08.06-.11.09-.03-.17-.05-.34-.08-.52-.14.05-.34.11-.54.18-.03-.04-.07-.08-.1-.12.17-.14.34-.29.53-.41.33-.22.59,0,.78.21.31.33.57.71.86,1.07h.02Z"/>
  <path d="M18.37,22.84c-.25.18-.5.35-.68.49-.18-.24-.3-.41-.44-.59-.12.09-.22.16-.32.24-.14-.11-.28-.22-.43-.34.24-.29.45-.56.67-.82.03.01.06.03.09.04-.15.27-.31.53-.46.8.02.02.03.03.05.05.27-.24.53-.49.84-.77.03.13.05.24.07.34.05-.01.11-.03.22-.06-.07.14-.13.25-.2.37.23-.04.43-.08.72-.14-.11.16-.18.25-.24.34.04.03.08.05.11.08h0Z"/>
  <path d="M20.74,22.54c.25,0,.39.05.37.37-.01.2.12.41.19.64.11-.02.23-.05.38-.08.09.21.18.42.28.66.1-.02.22-.04.33-.06.17.29.33.57.49.85.01.02-.08.1-.17.12.03-.06.05-.13.12-.29-.23.13-.4.22-.56.31-.02-.02-.05-.04-.07-.06l.35-.4s-.01-.03-.02-.05c-.12.07-.23.14-.42.25.08-.2.13-.34.19-.48-.21.02-.42.05-.7.08.12-.19.2-.32.28-.45-.01-.02-.03-.04-.04-.05-.12.08-.23.15-.45.29.15-.23.24-.36.36-.55-.23.05-.41.1-.62.15-.01-.14-.02-.25-.03-.38-.08.05-.15.09-.2.13-.36-.04.29-.64-.39-.5.15-.2.26-.35.36-.49,0,0-.02.02-.02.02Z"/>
  <path d="M18.38,22.85c.26.02.52.04.8.06-.1.39-.17.68.28.79.04.01.04.39-.01.57-.05.17-.19.3-.29.45-.06-.05-.12-.1-.17-.15.16-.22.32-.45.45-.63-.32-.06-.59-.12-.92-.19.15-.2.26-.35.38-.51-.01-.02-.02-.05-.04-.07-.26.13-.52.25-.89.43.17-.21.29-.33.37-.47.05-.08.03-.19.05-.29,0,0,0,.01,0,.01Z"/>
  <path d="M15.43,22.41c.1-.22.21-.45.31-.67l-.13-.07-.7.99c.07-.41.13-.81.56-.99.08-.03.22-.05.25,0,.05.07.08.2.05.28-.06.18-.17.34-.26.51-.03-.02-.06-.03-.09-.05Z"/>
  <path class="cls-1" d="M6.53,25.49c-.11.27-.22.53-.37.88-.09-.31-.18-.52-.21-.74-.01-.09.1-.2.16-.31.07.24.23.24.42.16Z"/>
  <path d="M31.77,57.15s.03.04.02.07c-.11.21-.21.42-.37.73v-.82c.13,0,.24.01.34.02Z"/>
  <path class="cls-1" d="M35.24,28.7c.22.18.44.37.68.53.14.1.3.16.45.24-.06.06-.12.12-.18.18-.66-.12-1.03-.61-1.39-1.12.15.06.29.11.44.17Z"/>
  <path class="cls-1" d="M20.1,33.02c.06-.37.13-.74.19-1.12.03,0,.06,0,.09,0,.01.24.03.48.04.72,0,.23,0,.46,0,.7,0,.25.06.51-.3.6-.09.02-.17.19-.19.3-.1.49-.18.98-.26,1.47-.03.18-.04.37-.05.56-.04,0-.08,0-.12-.01.02-.25.04-.51.06-.76-.17.91-.11,1.88-.7,2.66-.01-.02-.05-.08-.11-.19-.26.4-.55.76-.74,1.17-.12.26-.38.29-.52.45-.24.29-.38.65-.54.94-.13-.11-.26-.29-.43-.36-.08-.03-.24.13-.37.2l.06.12c-.08-.12-.15-.24-.24-.39v.64s-.04,0-.06,0c-.05-.27-.09-.53-.15-.85-.04.11-.06.17-.05.13h-.99c-.22.37-.48.81-.74,1.25-.03-.15-.07-.34-.1-.54-.01,0-.03,0-.04,0v.53s-.05,0-.08,0c0-.17-.02-.34-.02-.5-.04,0-.08-.02-.11-.03-.02.19-.04.38-.04.49-.25-.3-.51-.64-.81-.96-.06-.06-.24-.03-.36,0-.21.05-.4.15-.61.18-.07.01-.21-.08-.23-.16-.06-.17-.04-.37-.11-.53-.05-.11-.19-.18-.31-.27-.07.14-.14.29-.26.51-.18-.4-.32-.72-.46-1.05-.3.62-.59,1.21-.87,1.8-.22-.92.12-1.85-.41-2.75-.03.24-.06.42-.08.59h-.11c-.02-.37-.04-.74-.06-1.1-.03,0-.06,0-.08,0,0,.11-.02.23-.03.34-.04.01-.09.03-.13.04-.08-.23-.24-.46-.22-.68.05-.65-.19-1.23-.33-1.83-.04-.19-.32-.31-.4-.5-.16-.39-.26-.81-.4-1.21-.06-.16-.15-.32-.27-.43-.28-.27-.44-.53-.34-.95.15-.63.34-1.27-.14-1.87-.1-.13-.11-.39-.06-.57.18-.62.03-1.22-.18-1.77-.22-.62-.24-1.14.17-1.67.16-.21.27-.45.49-.65-.06.54-.12,1.09-.17,1.63.03,0,.07,0,.1.01.04-.2.07-.4.11-.59.08.17.16.36.24.55.05,0,.11-.01.16-.02,0-.24.04-.49,0-.72-.15-.7.21-1.19.6-1.68h.15c.05.49.1.98.15,1.48.05,0,.09,0,.14.01.03-.29.07-.58.1-.85.14.02.28.05.47.08-.01.11-.03.33-.06.63.3-.46.56-.85.81-1.24.04.06.07.1.11.17.07-.21.12-.38.21-.66.09.63.16,1.15.23,1.67.03,0,.06,0,.09,0,.16-.32.31-.63.47-.95.02.01.05.02.07.03-.04.19-.08.39-.12.58.03.01.07.02.1.03.07-.07.13-.15.2-.22.03,0,.06.01.09.02-.07.45-.15.9-.22,1.35.03,0,.07.01.1.02.11-.19.22-.38.37-.63q-.16,1.3.23,1.95c.17-.67.32-1.25.5-1.93.11.38.65-.32.65.37.03-.14.07-.28.1-.43.06.04.12.08.21.14.11-.19.21-.36.35-.6-.02.31-.04.55-.06.79.03,0,.07.02.1.03.32-.66.64-1.31.96-1.97.03.01.07.03.1.04-.01.12-.01.24-.04.35-.08.42-.07.4.27.74.17.17.25.44.37.66.04.08.08.17.1.22.35-.36.71-.72,1.06-1.08.04.02.08.05.13.07-.1.47-.43,1.02.34,1.2.31-.31.64-.63.96-.96.03.03.06.05.09.08-.14.49-.28.99-.41,1.48.04.01.08.02.12.03.12-.19.24-.38.35-.55.11.07.22.13.34.21.02.28.04.63.06,1.01.33-.1.61-.19.91-.28v.8s.07.02.1.03c.1-.15.19-.3.29-.46h.11c.03.14.02.3.08.43.07.15.17.3.29.42.1.09.25.12.43.2-1.04,1.1-.33,2.42-.62,3.62.06,0,.12,0,.19-.01ZM8.3,32.61c-.01.09-.02.18-.03.27.28.07.55.2.83.2,1.71-.02,3.38.24,5.05.55.4.07.82.17,1.22.14.53-.04,1.09-.02,1.53-.46.32-.32.73-.56,1.08-.85.12-.09.25-.22.27-.35.01-.08-.16-.27-.26-.28-.14-.01-.34.06-.42.17-.8,1.11-1.93,1.14-3.12.99-.73-.09-1.47-.21-2.2-.29-.57-.07-1.14-.13-1.71-.14-.75,0-1.5.04-2.25.06ZM9.03,29.15c.05.27.02.53.14.67.16.18.43.32.67.36.1.02.29-.25.36-.42.07-.18.1-.43.04-.6-.12-.3-.3-.59-.52-.83-.06-.06-.41,0-.46.09-.13.23-.17.52-.23.73ZM13.05,28.89s-.02,0-.03,0c.04.19.04.4.12.56.1.18.27.43.42.44.16,0,.38-.2.49-.38.23-.36.17-.76-.07-1.1-.12-.18-.33-.3-.49-.44-.15.22-.31.44-.45.67-.03.06,0,.16.02.25Z"/>
  <path class="cls-1" d="M27.62,24.21c-.58.18-1.15.42-1.14,1.22-.53-.13-.49-.54-.56-.9-.08-.44-.17-.87-.27-1.31-.03-.15-.12-.28-.18-.42-.07.05-.14.11-.21.16.08.55.37,1.09.35,1.65-.06,0-.11-.01-.17-.02-.1-.17-.17-.38-.31-.51-.29-.26-.38-.52-.07-.91-.18.04-.28.06-.45.1-.41-1.45-1.29-2.67-2.11-3.93,1.08.62,1.73,1.61,2.33,2.65.05-.03.11-.07.16-.1-.37-.7-.74-1.41-1.11-2.13.43-.53.9-1.12,1.43-1.78,1.65,1.74,2.33,3.83,2.32,6.22Z"/>
  <path class="cls-1" d="M24.39,17.07c.27-.41.67-.11,1-.01.35.1.67.32,1.12.44-.05-.12-.07-.31-.16-.36-.37-.2-.33-.44-.17-.75.19-.36.35-.73.52-1.09,1.19,1.03,2.11,2.36,2.92,3.78.05.09.03.24,0,.34-.2.49-.42.97-.62,1.46-.12.29-.23.59-.35.9-.39-1.26-.7-2.58-1.59-3.75.43,1.29.83,2.47,1.22,3.66.23.71.17,1.41-.26,2.09-.05-.24-.12-.46-.14-.69-.11-1.22-.35-2.4-.84-3.52-.31-.72-.71-1.41-1.35-1.88-.37-.28-.85-.42-1.29-.63Z"/>
  <path class="cls-1" d="M30.27,19.5c-.84-1.35-1.59-2.77-2.81-3.84-.21-.18-.42-.37-.66-.51-.43-.26-.44-.73-.67-1.14.67-.11,1.11.22,1.47.6.56.58,1.04,1.23,1.56,1.85.09.11.23.18.35.27.05-.04.09-.09.14-.13-.28-.38-.53-.78-.84-1.13-.43-.46-.89-.9-1.38-1.3-.21-.17-.22-.28-.12-.51.19-.46.34-.93.52-1.44,1.13.77,2.08,1.8,2.83,2.78-.12.86-.21,1.59-.31,2.29-.12.01-.28.03-.44.04.03.12.04.25.08.36.11.33.25.65.33.99.07.27.07.55.1.83-.05,0-.1,0-.14,0Z"/>
  <path class="cls-1" d="M31,13.4c-.28-.27-.56-.54-.85-.8-.06-.05-.19-.04-.28-.05.03.09.03.2.08.26.42.56.87,1.1,1.28,1.67.16.23.25.51.29.82-.31-.38-.59-.8-.95-1.14-.75-.7-1.56-1.36-2.33-2.05-.38-.34-.73-.72-1.09-1.09.04-.05.08-.11.12-.16.47.23.94.46,1.48.72-.31-.32-.56-.59-.73-.77.15-.67.28-1.24.41-1.82,1.15.62,1.98,1.62,2.72,2.47v1.93c-.05,0-.1.01-.15.02Z"/>
  <path class="cls-1" d="M3.14,22.65c-.42-.55-.36-1.07-.18-1.62.25-.76.49-1.52.74-2.28l-.13-.05c-.31.78-.61,1.57-.94,2.42-.25-.57-.48-1.11-.7-1.65-.02-.06-.03-.15,0-.2.56-1.01,1.2-1.96,2.12-2.78.14.55.84.96.12,1.58.54-.12.96-.55,1.63-.33-1.85.65-2.17,2.18-2.47,3.71-.07.38-.11.76-.17,1.19Z"/>
  <path class="cls-1" d="M5.44,21.4c-.13.2-.2.31-.29.47h-.51q.08.64-.24.76v.99c-.07-.02-.17-.02-.23-.07-.19-.15-.37-.31-.54-.48-.09-.08-.21-.19-.21-.28-.03-1.37.38-2.61,1.14-3.73.15-.22.34-.4.53-.6.38.46.71.87,1.07,1.29-.23.58-.91,1.01-.7,1.65Z"/>
  <path class="cls-1" d="M27.98,7.73c.32.18.65.37.97.55.16.09.34.15.51.22.03-.05.05-.1.08-.15-.35-.26-.69-.52-1.01-.75-.03-.52-.06-1.03-.09-1.6.66.43,1.28.86,1.91,1.26.67.42.78,1.08.82,1.78.02.28.03.55.04.92-.28-.25-.5-.44-.72-.63-.04.03-.08.06-.13.08.11.17.19.38.35.51.59.49.86,1.18,1.22,1.81-.03.02-.06.04-.09.06-.26-.37-.51-.74-.77-1.1-.56-.76-1.29-1.33-2.11-1.8-.43-.25-.89-.5-1.1-.99l.12-.17Z"/>
  <path class="cls-1" d="M4.46,15.65c-.19.26-.32.57-.57.76-.99.74-1.59,1.77-2.21,2.79-.06.1-.11.19-.17.29-.01.02-.05.02-.22.09.16-.57.29-1.05.44-1.56-.35-.04-.42-.26-.4-.58.02-.22,0-.47-.1-.66-.18-.36-.04-.61.2-.85.45-.46.9-.93,1.36-1.38.11-.11.26-.2.42-.31.16.46.3.86.44,1.29-.69.52-1.27,1.14-1.66,1.94.78-.65,1.18-1.78,2.31-1.97.05.05.11.1.16.15Z"/>
  <path class="cls-1" d="M6.69,68.51c.52.92.49,1.78.15,2.66.06.02.11.04.17.06,0-.11.01-.22.02-.33.06.04.12.08.18.12v1.42s.03-.02.09-.08c.13.51-.24,1.4-.7,1.68.29.41-.49.82-.09,1.2.21-.29.4-.56.63-.89-.05,1.09-.1,2.08-.15,3.1-.27-.45-.55-.89-.81-1.34-.06-.1-.09-.26-.05-.36.3-.67-.01-1.38.13-2.07.14-.69.32-1.43.2-2.11-.1-.62.07-1.17.08-1.75,0-.41.09-.81.15-1.32Z"/>
  <path class="cls-1" d="M.46,16.34c.42-.59.85-1.18,1.27-1.77-.03-.03-.06-.07-.09-.1-.24.2-.48.4-.79.66-.02-.39.02-.75-.08-1.05-.15-.46.21-.62.41-.83.46-.49.97-.92,1.53-1.33-.06.61.74,1.19-.02,1.77.28-.13.57-.26.85-.39.03.03.05.06.08.08-.16.21-.29.49-.5.63-.97.69-1.88,1.43-2.53,2.45-.05-.04-.09-.08-.14-.12Z"/>
  <path class="cls-1" d="M43.57,64.49c-.35-.72-.76-1.42-1.05-2.17-.57-1.43-.53-2.92-.28-4.41.08-.47.14-.95.3-1.42.22,1.13.16,2.27.28,3.4,0,0,.04-.03.09-.08v.47c-.06-.02-.12-.04-.25-.08.05.57.03,1.11.16,1.63.19.77.49,1.51.73,2.26.04.12.05.26.08.39-.02,0-.05.01-.07.02Z"/>
  <path class="cls-1" d="M.23,13.72c.35-.49.7-.98,1.05-1.47-.02-.02-.04-.04-.05-.06-.16.11-.31.21-.49.33-.03-1.5.36-2.04,1.92-2.72,0,.33.09.7-.03.98-.11.26-.43.43-.66.64.02.03.03.07.05.1.34-.17.68-.34,1.02-.51.03.04.07.09.1.13-.14.14-.25.32-.41.42-.96.58-1.84,1.23-2.37,2.27-.04-.04-.08-.07-.13-.11Z"/>
  <path class="cls-1" d="M29.6,5.42h-.42c.93.79,1.87,1.46,2.39,2.49-.62-.53-1.21-1.1-1.87-1.59-.66-.49-1.38-.9-2.08-1.35.04-.07.07-.13.11-.2.37.16.73.32,1.1.48.03-.04.05-.09.08-.13-.23-.16-.5-.28-.66-.49-.17-.22-.22-.53-.3-.76.1-.09.21-.18.31-.28-.14-.02-.28-.05-.42-.07-.19-.02-.39-.02-.57-.1.71-.08,1.43-.21,2.04.35-.23-.08-.45-.16-.73-.26.37.68.68,1.26,1.03,1.9Z"/>
  <path class="cls-1" d="M8.14,57.23c-.37-.8-.66-1.61-.53-2.54.06.16.12.31.18.47.07-.49-.31-.99.05-1.46.03.04.06.09.13.19-.04-.39-.07-.72-.1-1.06l.15-.02c.14,1.16.28,2.33.43,3.49-.05,0-.1.02-.15.03-.1-.36-.21-.72-.31-1.09-.05.68.37,1.31.15,1.99,0,0,0,0,0,0Z"/>
  <path class="cls-1" d="M.37,11c.54-.54,1.08-1.09,1.59-1.6,0-.55.35-.94.58-1.41-.06-.02-.13-.06-.21-.09,0-.03,0-.05,0-.08.38-.03.75-.05,1.13-.08,0,.05,0,.09,0,.14h-.62c.36.6-.07.88-.47,1.18.03.02.06.05.09.07.23-.11.45-.21.68-.32.03.04.05.08.08.12-.86.8-2.13,1.1-2.71,2.24-.06-.06-.11-.12-.17-.17Z"/>
  <path class="cls-1" d="M6.59,63.6c.21.76.4,1.48.6,2.23-.61-.13-1.06.04-1.55.41.32-.89.62-1.73.95-2.64Z"/>
  <path class="cls-1" d="M37.02,35.21c.23-.18.36-.28.51-.4.63,1.06,1.26,2.13,1.9,3.2-.02.02-.05.04-.07.06-.78-.95-1.56-1.9-2.33-2.85Z"/>
  <path class="cls-1" d="M7.01,57.14c.1.43.21.86.28,1.3.03.16.18.48-.25.39-.03,0-.11.14-.14.23-.12.35-.23.7-.34,1.05-.06-.01-.12-.03-.18-.04.17-.98.34-1.96.51-2.94.04,0,.09.01.13.02Z"/>
  <path class="cls-1" d="M43.86,61.91c-.22-1.22-.43-2.45-.65-3.67.05,0,.11-.02.16-.03.51,1.18.63,2.42.62,3.68-.04,0-.09.01-.13.02Z"/>
  <path class="cls-1" d="M43.19,67.78v-3.49c.4,1.16.59,2.33,0,3.49Z"/>
  <path class="cls-1" d="M6.77,83.81c-.29-.18-.48-.29-.68-.41l-.12.06c.07-.63.14-1.26.21-1.9h.13c.15.72.3,1.46.46,2.24Z"/>
  <path class="cls-1" d="M6.21,57.38c-.09-.22.72-2.67,1.09-3.26.04.84-.33,1.5-.62,2.18-.04.09-.11.17-.12.26-.05.5-.04.5-.35.82Z"/>
  <path class="cls-1" d="M8.28,53.09c-.11-1.54-.23-2.29.26-2.8.05.99.08,1.91-.26,2.8Z"/>
  <path class="cls-1" d="M9.08,47.07c-.04.95-.67,1.45-1.14,2.04.04-.82.41-1.46,1.14-2.04Z"/>
  <path class="cls-1" d="M6.49,66.37c-.25.78-.5,1.57-.73,2.29-.35-.7.08-2.11.73-2.29Z"/>
  <path class="cls-1" d="M7.14,68.46c-.15-.77-.29-1.54-.44-2.31.06-.01.12-.03.18-.04.41.14.24.53.26.82.02.32,0,.63.08.97.04-.08.08-.17.12-.25.03,0,.06.02.08.03-.1.26-.19.53-.29.79,0,0,0,0,0,0Z"/>
  <path class="cls-1" d="M9.54,47.87c-.13.81-.25,1.61-.38,2.42-.17-.85-.22-1.69.38-2.42Z"/>
  <path class="cls-1" d="M7.3,52.46s-.14-.03-.31-.07c.38-.87.74-1.71,1.11-2.55.02,0,.04.02.06.03-.28.85-.57,1.71-.86,2.59Z"/>
  <path class="cls-1" d="M7.88,58.75c-.19-.91-.37-1.82-.56-2.73.37.4.73,1.97.56,2.73Z"/>
  <path class="cls-1" d="M40.48,45.55c.42.52.84,1.04,1.32,1.63-.2.05-.31.1-.32.08-.34-.57-.66-1.15-.99-1.72,0,0,0,0,0,0Z"/>
  <path class="cls-1" d="M19.7,26.24c-.13.23-.24.49-.41.69-.09.1-.3.1-.45.15,0-.13-.02-.26,0-.38,0-.08.06-.16.1-.27.1.08.2.15.34.25.1-.15.21-.32.32-.49.04.02.07.04.11.06Z"/>
  <path class="cls-1" d="M6.37,78.24c-.09.73-.18,1.46-.27,2.18-.04,0-.09,0-.13-.01.08-.73.15-1.47.23-2.2.06.01.11.02.17.03Z"/>
  <path class="cls-1" d="M36.87,32.29c-.43-.36-.75-.71-.62-1.26.2.28.41.54.57.82.07.12.04.29.05.43Z"/>
  <path class="cls-1" d="M43.13,62.29c-.11-.62-.23-1.24-.34-1.86.07-.01.13-.02.2-.04.1.62.2,1.25.3,1.87-.05,0-.1.02-.15.03Z"/>
  <path class="cls-1" d="M5.3,74.02l.29-1.68c.05,0,.11.02.16.03-.08.56-.16,1.13-.24,1.69-.07-.01-.14-.02-.21-.04Z"/>
  <path class="cls-1" d="M31.02,25.76c.56.13.97.54.88.92-.3-.32-.6-.63-.88-.92Z"/>
  <path class="cls-1" d="M10.91,19.62v-1.37c.26.18.36.4.21.73-.08.19-.07.42-.1.64-.04,0-.07,0-.11,0Z"/>
  <path class="cls-1" d="M17.99,26.91c.21-.55.42-1.08.62-1.6.07.63-.28,1.54-.62,1.6Z"/>
  <path class="cls-1" d="M27.51,2.02h-.57c.02-.1.04-.19.06-.28-.17-.04-.33-.07-.61-.14q.8-.18,1.12.42Z"/>
  <path class="cls-1" d="M5.9,31.31c-.42-.73.01-1.43,0-2.11v2.11Z"/>
  <path class="cls-1" d="M21.01,31.37c-.35-.37-.34-.99,0-1.29v1.29Z"/>
  <path class="cls-1" d="M28.85,24.75c-.12-.15-.26-.29-.34-.46-.06-.12-.04-.28,0-.43.33.24.57.49.33.9,0,0,0,0,0,0Z"/>
  <path class="cls-1" d="M28.22,3.21c-.35-.13-.62-.23-.89-.33q.53-.29.89.33Z"/>
  <path class="cls-1" d="M9.22,46.26v.89c-.17-.09-.33-.19-.49-.28.14-.22.28-.44.42-.66.02.01.05.03.07.04Z"/>
  <path class="cls-1" d="M40.31,38.25c.14.49.29.99.43,1.48-.05.02-.11.03-.16.05-.13-.5-.27-.99-.4-1.49.05-.01.09-.03.14-.04Z"/>
  <path class="cls-1" d="M36.31,32.89c.16.4.28.73.42,1.08-.39.01-.54-.41-.42-1.08Z"/>
  <path class="cls-1" d="M36.99,31.16c-.46-.1-.95-.69-.95-1.11.32.38.61.72.95,1.11Z"/>
  <path class="cls-1" d="M43.39,69.67c-.04-.41-.08-.73-.11-1.05.43,0,.49.36.11,1.05Z"/>
  <path class="cls-1" d="M20.23,34.22c0,.3.23.66-.35.93.09-.39.16-.67.23-.95l.12.02Z"/>
  <path class="cls-1" d="M2.96,7.64c.05-.25.08-.42.12-.63h.58s0,.04,0,.06c-.13.02-.26.05-.44.08.1.09.17.16.29.27-.19.08-.34.14-.55.23Z"/>
  <path class="cls-1" d="M6.17,85.04c-.27-.48-.21-.79.23-1.06-.08.39-.15.71-.23,1.06Z"/>
  <path class="cls-1" d="M15.31,26.17c0-.46.35-.89.74-.88-.26.3-.49.58-.74.88Z"/>
  <path class="cls-1" d="M6.77,53.96c.15-.38.3-.75.44-1.13.05.02.11.04.16.06-.16.37-.32.75-.47,1.12-.04-.02-.09-.04-.13-.05Z"/>
  <path class="cls-1" d="M7.03,59.92c-.17.41-.35.81-.52,1.22-.03-.01-.07-.02-.1-.04.16-.41.31-.82.47-1.24.05.02.1.04.15.06Z"/>
  <path class="cls-1" d="M28.08,2.54c-.42-.05-.76-.09-1.1-.13.49-.2.84-.16,1.1.13Z"/>
  <path class="cls-1" d="M6.24,72.98c-.05.39-.1.79-.15,1.18-.04,0-.08,0-.13-.01.05-.39.1-.79.15-1.18.04,0,.08.01.12.02Z"/>
  <path class="cls-1" d="M39.5,81.16h6.22c.62,1.78,1.16,3.57.92,5.46-2.35-.12-4.7-.23-7.05-.35-.33-1.03.18-2.01.07-2.99.17-.08.32-.15.47-.22q-.74-1.31-.63-1.91Z"/>
  <path class="cls-1" d="M19.75,86.5v-1.11c.48-.06,1.01-.03,1.46-.21.92-.38,1.84-.83,2.68-1.36.65-.4,1.17-1,1.77-1.47.57-.45.94-.3,1.01.41.04.42,0,.86-.03,1.29-.02.41.12.53.52.52.17,0,.4.11.51.25.4.51.3,1.11.28,1.67h-8.2Z"/>
  <path class="cls-1" d="M17.91,86.98c.09,0,.18-.01.29-.02v.45c-.64.05-1.27.1-1.92.16-.02-.14-.04-.24-.05-.32-.27.13-.52.26-.85.42-.03-.37-.21-.64.04-.88-.26-.09-.38-.72-.18-1.37.32.12.63.26.95.36.06.02.16-.09.25-.1.58-.05,1.16-.09,1.81-.14-.11.52.16,1.03-.33,1.44ZM17.86,85.85c-.34.09-.63.16-.92.23.47.26.84.15.92-.23Z"/>
  <path class="cls-1" d="M37.72,58.85c.24-.01.37-.05.49-.02.1.03.22.12.27.22.03.05-.06.18-.11.25-.18.25-.37.49-.58.76-.02-.4-.04-.78-.06-1.21Z"/>
  <path class="cls-1" d="M18.74,85.28v1.96h-.18c.03-.66.06-1.31.09-1.97.03,0,.06,0,.09,0Z"/>
  <path class="cls-1" d="M19.23,86.3c.02.25.03.49.06.74.02.13.08.25.1.38.02.09.02.2-.01.28-.02.05-.18.08-.21.05-.06-.05-.11-.16-.1-.24.02-.4.07-.8.1-1.2.02,0,.04,0,.06,0Z"/>
  <path class="cls-1" d="M24.32,70.07c-.12.37-.25.74-.37,1.11l-.2-.06c.13-.37.19-.76.42-1.09.05.02.1.03.15.05Z"/>
  <path class="cls-1" d="M29.1,99.2c-.24.27-.55.38-.91.36-.2-.01-.41.03-.61.05-.47.06-.94.11-1.4.17-.13.02-.32-.36-.35,0-.17-.09-.34-.25-.51-.25-.33,0-.67.1-1.01.12-.39.02-.77-.01-1.16,0-.27,0-.53.1-.79.07-.44-.05-.88-.16-1.32-.23-.14-.02-.28,0-.44,0-.17-.39-.45-.55-.91-.53-.34.02-.68-.11-1.03-.15-.12-.01-.27,0-.36.07-.35.27-.76.27-1.17.32-.27.03-.42-.04-.47-.27-.06-.28-.23-.24-.41-.2-.45.09-.89.21-1.33.29-.67.12-1.2-.03-1.56-.4.62-.27,1.24-.55,1.87-.83.07-.03.12-.09.18-.14.11,0,.21,0,.3,0,0,.1,0,.2,0,.31-.21.09-.42.19-.65.29.08.04.13.06.17.08-.13.14-.26.28-.39.41.21,0,.36-.11.51-.11.5-.01.84-.29,1.19-.61.32-.29.68-.52,1.02-.78.02.03.03.05.05.08-.06.12-.12.25-.17.37.03.02.06.04.09.07.19-.18.39-.36.58-.54.02.01.03.03.05.04-.09.15-.17.29-.26.44.55-.46.68-.81.63-1.37-.39.26-.81.54-1.24.82,0-.08,0-.16,0-.31-.02.02.05-.04.12-.1-.32.08-.6.23-.9.34-.17.06-.4.19-.49-.13.12-.08.24-.17.36-.25,0-.03-.02-.06-.02-.09-.23.03-.46.07-.69.1.06-.31-.11-.45-.59-.5-.53-.05-.88.2-.9.59-.34.16-.66.31-1.01.48-.13-.5-.39-.34-.71-.17-.22.12-.5.14-.75.23-.17.06-.32.17-.47.26-.06-.05-.12-.12-.19-.18.04.02.07.04.11.07.2-.31.38-.64.61-.92.09-.11.32-.11.48-.18.18-.07.36-.15.53-.23.07.03.13.06.24.11-.19.11-.33.19-.54.31.25.07.52-.17.59.18,0,.02.14.03.2,0,.27-.11.53-.23.8-.35,0-.02-.02-.04-.02-.06-.28.1-.55.2-.83.3-.01-.03-.03-.05-.04-.08.16-.14.32-.27.48-.41,0-.05-.02-.1-.03-.14-.15,0-.3-.02-.44,0-.13.02-.26.08-.39.12-.05.02-.1.04-.15.05-.01-.01-.02-.03-.03-.04.15-.12.31-.25.46-.37,0-.01-.01-.02-.02-.03-.86.33-1.72.66-2.58.99-.02-.04-.04-.08-.06-.12.41-.42.86-.73,1.46-.9.81-.22,1.58-.55,2.37-.84.06.34.12.72.18,1.09.03,0,.05,0,.08-.01.33-.75.67-1.5,1.05-2.35.19.62.27,1.16.65,1.62.14-.26.22-.43.35-.68.06.57.12,1.05.19,1.67.09-.2.14-.29.17-.39.13-.49.34-.61.85-.73.25-.06.57-.19.69-.52.06-.16.2-.29.31-.45.14.31.26.61.41.88.05.1.17.15.26.23.07-.11.21-.24.19-.33-.11-.53.24-.75.6-.98.3-.19.49-.13.57.23.08.38.11.78.17,1.24.27-.33.51-.64.83-1.04-.06.29-.09.47-.15.77.35-.39.61-.68.91-1.01-.02.42-.04.77-.05,1.12.05-.02.1-.03.14-.04.08.58.15,1.16.23,1.74-.23.05-.5.11-.78.16-.03,0-.08.02-.1,0q-.35-.22-.65.08c-.07-.29-.14-.56-.2-.83-.07-.28-.11-.61-.52-.29-.05.04-.17-.02-.37-.05.33.72.63,1.36.95,2.06-.01.02-.1.12-.22.27.02-.19.04-.34.05-.46-.19.02-.36.04-.56.06.03-.14.06-.24.08-.34-.02-.01-.04-.02-.07-.03-.14.21-.28.43-.41.64-.23.38.06.53.32.72.06-.06.13-.12.13-.13.2.02.34.04.47.06.01-.04.03-.08.04-.12.02.04.03.08.05.12.03.05.05.09.11.19.18-.19.33-.36.49-.54.07.14.14.29.21.44.03-.01.05-.02.08-.03-.03-.22-.06-.43-.09-.74.54-.03,1.05-.06,1.56-.09,0,0,0,0,0,0-.05.18-.11.36-.16.52.21.22.58-.36.71.16.21-.04.41-.08.64-.12.01.04.05.15.11.31.1-.14.19-.25.29-.39.01.18.03.32.04.47.03,0,.06,0,.09.01.08-.58.17-1.16.26-1.83.12.4.22.72.32,1.05q.26-.08.32-.65c.1.25.16.45.26.62.05.08.24.16.28.13.26-.21.5-.45.81-.74.7-.01,1.01-.56.56-1.33-.16.19-.31.37-.48.57-.07-.04-.18-.09-.36-.19.37-.41.72-.79,1.13-1.23.1.51.17.88.25,1.25.05,0,.09,0,.14-.01l.35-.75s.06,0,.09.01c.04.21.09.41.13.62.04,0,.08.01.13.02l.29-1.23c.05,0,.1.02.15.02-.03.4-.08.81-.08,1.21,0,.45.03.89.06,1.34.04.5-.24.88-.47,1.28-.01.03-.1,0-.16,0,.08-.19.12-.4.25-.56.25-.32.31-1.01.08-1.41-.21.17-.42.34-.63.51-.06-.07-.16-.2-.27-.33-.27.28-.49.52-.72.76-.02-.1-.04-.18-.07-.29-.1.1-.23.16-.25.25-.06.22-.14.48-.08.67.03.1.41.19.56.12.47-.21.78.04,1.13.27ZM19.07,96s-.08.06-.13.09c.16.41.31.82.51,1.33-.68-.22-1.01.04-1.18.61.26.09.55.13.79.27.36.2.49,0,.65-.26.12-.2.26-.39.44-.64-.02-.13-.06-.34-.1-.55-.21.1-.24.03-.4-.8-.08.16-.16.31-.24.49-.11-.18-.22-.36-.33-.54Z"/>
  <path class="cls-1" d="M23.38,98.09c-.07-.13-.18-.26-.2-.4-.09-.6-.16-1.2-.24-1.8-.04-.34.09-.57.39-.72.06-.03.1-.12.13-.2.18-.37.54-.29.81-.26.12.01.25.36.28.57.04.26-.02.53-.05.79-.05.47-.17.94.27,1.38,0-.04.02-.11.05-.22.25.43.28.78,0,1.19-.1-.3-.18-.54-.27-.8-.1.17-.19.33-.31.53-.12-.51-.21-.98-.33-1.44-.02-.09-.14-.14-.22-.22-.04.02-.08.04-.11.06.08.45.16.9.22,1.25-.18.12-.3.21-.42.29,0,0,0,0,0,0Z"/>
  <path class="cls-1" d="M15.25,97.6c-.05.01-.11.01-.16.04-.38.18-.74.45-1.17.1.02-.04.06-.1.09-.17-.01-.02-.03-.04-.04-.07-.17.1-.34.2-.49.31-.04.03-.03.14-.08.17-.68.41-1.24,1.08-2.12,1.06-.37,0-.73-.11-1.09-.17-.08-.01-.16-.06-.24-.06-.38,0-.77,0-1.22,0,.08-.19.14-.33.22-.49.57.14,1.12.22,1.62-.24.17-.16.47-.43.73-.03-.1.09-.21.18-.29.24,1.21-.29,2.43-.66,3.54-1.52-.06.26-.08.39-.11.52.19.05.38.11.56.16.09.05.17.1.26.15Z"/>
  <path class="cls-1" d="M26.1,94.81c-.05.34-.08.62-.12.92.08-.13.17-.26.28-.43v1.1s.06.03.09.04c.24-.43.48-.86.74-1.32.4.37.34.73-.11,1.14-.09.08-.22.16-.25.27-.03.1.05.23.08.35.01.07.05.18.01.22-.11.11-.24.19-.39.3-.23-.13-.05-1.01-.75-.47-.06-.15-.12-.28-.18-.41-.12.08-.25.16-.37.24-.31-.48.19-1.61.97-1.96Z"/>
  <path class="cls-1" d="M14.2,94.21c-.47.18-.91.35-1.28.49.21-.54.43-1.11.64-1.69.02,0,.04,0,.06,0v.64s.04,0,.06,0c.02-.12.04-.24.08-.43.16.37.3.68.43.98Z"/>
  <path d="M16,96.93c.09.32.32.19.49.13.3-.11.58-.25.9-.34-.07.06-.15.12-.12.1,0,.15,0,.23,0,.31-.04.02-.07.04-.11.06-.08-.05-.19-.16-.22-.14-.43.29-.85.6-1.27.91h.02v-.32c-.08,0-.19,0-.3,0,0,0,0-.02,0-.02.04-.09.06-.2.12-.26.16-.15.34-.28.51-.42h-.02Z"/>
  <path class="cls-1" d="M10.03,98.03c-.39-.48-.38-.78-.04-.83.24-.04.49-.05.81-.09-.26.31-.5.6-.77.92Z"/>
  <path class="cls-1" d="M16.02,96.95c-.17.14-.35.26-.51.42-.07.06-.08.18-.12.26-.05,0-.09-.02-.14-.03-.09-.05-.17-.1-.26-.15.34-.17.69-.33,1.03-.5Z"/>
  <path d="M8.3,32.61c.75-.02,1.5-.07,2.25-.06.57,0,1.14.07,1.71.14.74.08,1.47.2,2.2.29,1.19.15,2.32.12,3.12-.99.08-.11.28-.18.42-.17.1,0,.27.2.26.28-.02.13-.16.25-.27.35-.36.29-.76.53-1.08.85-.44.44-1,.42-1.53.46-.4.03-.82-.07-1.22-.14-1.67-.3-3.34-.57-5.05-.55-.28,0-.55-.13-.83-.2.01-.09.02-.18.03-.27Z"/>
  <path d="M9.03,29.15c.06-.22.1-.5.23-.73.05-.09.41-.15.46-.09.21.24.4.53.52.83.07.17.03.42-.04.6-.07.17-.26.44-.36.42-.24-.04-.51-.18-.67-.36-.12-.13-.09-.39-.14-.67Z"/>
  <path d="M13.05,28.89c0-.08-.05-.19-.02-.25.14-.23.3-.45.45-.67.17.15.37.27.49.44.24.34.29.74.07,1.1-.11.17-.33.38-.49.38-.15,0-.32-.26-.42-.44-.09-.16-.09-.37-.12-.56.01,0,.02,0,.03,0Z"/>
  <path d="M17.86,85.85c-.08.39-.45.5-.92.23.29-.07.58-.15.92-.23Z"/>
  <path d="M29.1,99.2c-.34-.22-.66-.48-1.13-.27-.15.07-.53-.02-.56-.12-.07-.2.02-.45.08-.67.02-.09.15-.15.25-.25.02.1.04.19.07.29.23-.24.45-.48.72-.76.11.13.21.26.27.33.21-.17.41-.34.63-.51.24.4.17,1.09-.08,1.41-.12.16-.17.37-.25.56,0,0,0,0,0,0Z"/>
  <path d="M19.07,96c.11.18.22.36.33.54.09-.18.17-.33.24-.49.16.83.18.9.4.8.04.21.08.43.1.55-.17.25-.31.44-.44.64-.15.25-.29.46-.65.26-.24-.13-.52-.18-.79-.27.17-.56.5-.83,1.18-.61-.19-.51-.35-.92-.51-1.33.04-.03.08-.06.13-.09Z"/>
  <path d="M17.16,97.2s.07-.04.11-.06c.42-.28.84-.56,1.24-.82.05.56-.08.91-.63,1.37.09-.15.17-.29.26-.44-.02-.01-.03-.03-.05-.04-.19.18-.39.36-.58.54-.03-.02-.06-.04-.09-.07.06-.12.12-.25.17-.37-.02-.03-.03-.05-.05-.08-.34.26-.71.49-1.02.78-.35.32-.68.6-1.19.61-.15,0-.3.1-.51.11.13-.14.26-.27.39-.41-.04-.02-.09-.04-.17-.08.22-.1.43-.19.65-.29,0,0-.02.01-.02.01.2-.1.4-.19.59-.29.3-.16.6-.32.9-.48Z"/>
  <path d="M12.75,96.14c.13-.04.26-.1.39-.12.14-.02.29,0,.44,0,0,.05.02.1.03.14-.16.14-.32.27-.48.41.01.03.03.05.04.08.28-.1.55-.2.83-.3,0,.02.02.04.02.06-.27.12-.53.24-.8.35-.06.02-.2.01-.2,0-.07-.35-.33-.11-.59-.18.21-.12.36-.2.54-.31-.11-.05-.17-.08-.24-.11,0,0,0,0,0,0Z"/>
  <path class="cls-1" d="M17.16,97.2c-.3.16-.6.32-.9.48-.19.1-.39.19-.59.29.42-.31.84-.62,1.27-.91.03-.02.15.09.22.14Z"/>
</svg>